<svg xmlns="http://www.w3.org/2000/svg" xmlns:xlink="http://www.w3.org/1999/xlink" width="500" zoomAndPan="magnify" viewBox="0 0 375 157.5" height="210" preserveAspectRatio="xMidYMid meet" version="1.0"><defs><g/><clipPath id="412cc467dd"><path d="M 48 48 L 145 48 L 145 148 L 48 148 Z M 48 48 " clip-rule="nonzero"/></clipPath><clipPath id="8777ca4ccd"><path d="M -0.453125 5.273438 L 145.804688 -2.160156 L 153.53125 149.855469 L 7.273438 157.289062 Z M -0.453125 5.273438 " clip-rule="nonzero"/></clipPath><clipPath id="b3f90f4c95"><path d="M -0.453125 5.273438 L 145.804688 -2.160156 L 153.53125 149.855469 L 7.273438 157.289062 Z M -0.453125 5.273438 " clip-rule="nonzero"/></clipPath><clipPath id="4fb7dda9ef"><path d="M -0.453125 5.273438 L 145.804688 -2.160156 L 153.53125 149.855469 L 7.273438 157.289062 Z M -0.453125 5.273438 " clip-rule="nonzero"/></clipPath><clipPath id="ba1768b842"><path d="M 47 17 L 151 17 L 151 86 L 47 86 Z M 47 17 " clip-rule="nonzero"/></clipPath><clipPath id="fe5054547a"><path d="M -0.453125 5.273438 L 145.804688 -2.160156 L 153.53125 149.855469 L 7.273438 157.289062 Z M -0.453125 5.273438 " clip-rule="nonzero"/></clipPath><clipPath id="d287eab955"><path d="M -0.453125 5.273438 L 145.804688 -2.160156 L 153.53125 149.855469 L 7.273438 157.289062 Z M -0.453125 5.273438 " clip-rule="nonzero"/></clipPath><clipPath id="417634b774"><path d="M -0.453125 5.273438 L 145.804688 -2.160156 L 153.53125 149.855469 L 7.273438 157.289062 Z M -0.453125 5.273438 " clip-rule="nonzero"/></clipPath><clipPath id="37cf78ad72"><path d="M 14 48 L 90 48 L 90 154 L 14 154 Z M 14 48 " clip-rule="nonzero"/></clipPath><clipPath id="7f0c9ad61f"><path d="M -0.453125 5.273438 L 145.804688 -2.160156 L 153.53125 149.855469 L 7.273438 157.289062 Z M -0.453125 5.273438 " clip-rule="nonzero"/></clipPath><clipPath id="cca6ceedb0"><path d="M -0.453125 5.273438 L 145.804688 -2.160156 L 153.53125 149.855469 L 7.273438 157.289062 Z M -0.453125 5.273438 " clip-rule="nonzero"/></clipPath><clipPath id="ea902ea583"><path d="M -0.453125 5.273438 L 145.804688 -2.160156 L 153.53125 149.855469 L 7.273438 157.289062 Z M -0.453125 5.273438 " clip-rule="nonzero"/></clipPath><clipPath id="89720650f3"><path d="M 1 3 L 81 3 L 81 83 L 1 83 Z M 1 3 " clip-rule="nonzero"/></clipPath><clipPath id="e08dbc4a27"><path d="M -0.453125 5.273438 L 145.804688 -2.160156 L 153.53125 149.855469 L 7.273438 157.289062 Z M -0.453125 5.273438 " clip-rule="nonzero"/></clipPath><clipPath id="e4da76041d"><path d="M -0.453125 5.273438 L 145.804688 -2.160156 L 153.53125 149.855469 L 7.273438 157.289062 Z M -0.453125 5.273438 " clip-rule="nonzero"/></clipPath><clipPath id="096c2e55cb"><path d="M -0.453125 5.273438 L 145.804688 -2.160156 L 153.53125 149.855469 L 7.273438 157.289062 Z M -0.453125 5.273438 " clip-rule="nonzero"/></clipPath></defs><g clip-path="url(#412cc467dd)"><g clip-path="url(#8777ca4ccd)"><g clip-path="url(#b3f90f4c95)"><g clip-path="url(#4fb7dda9ef)"><path fill="#a7a5a6" d="M 91.882812 146.945312 C 122.363281 145.394531 145.816406 119.359375 144.261719 88.789062 C 143.425781 72.304688 135.484375 57.871094 123.566406 48.3125 C 131.898438 57.472656 137.230469 69.472656 137.910156 82.820312 C 139.464844 113.390625 116.011719 139.429688 85.53125 140.976562 C 71.492188 141.691406 58.410156 137.082031 48.230469 128.917969 C 58.980469 140.734375 74.714844 147.820312 91.882812 146.945312 " fill-opacity="1" fill-rule="nonzero"/></g></g></g></g><g clip-path="url(#ba1768b842)"><g clip-path="url(#fe5054547a)"><g clip-path="url(#d287eab955)"><g clip-path="url(#417634b774)"><path fill="#8b2f29" d="M 51.058594 32.96875 C 49.574219 31.417969 48.453125 29.480469 47.570312 26.945312 C 56.777344 21.425781 67.425781 18.015625 78.890625 17.433594 C 116.296875 15.53125 148.171875 44.402344 150.078125 81.917969 C 150.136719 83.113281 150.167969 84.304688 150.167969 85.488281 C 146.796875 53.4375 118.96875 29.261719 86.492188 30.914062 C 77.234375 31.382812 68.570312 33.90625 60.902344 38.015625 C 56.296875 36.804688 53.25 35.261719 51.058594 32.96875 " fill-opacity="1" fill-rule="nonzero"/></g></g></g></g><g clip-path="url(#37cf78ad72)"><g clip-path="url(#7f0c9ad61f)"><g clip-path="url(#cca6ceedb0)"><g clip-path="url(#ea902ea583)"><path fill="#8b2f29" d="M 30.714844 52.519531 C 33.074219 54.988281 34.523438 58.417969 35.546875 63.710938 C 30.695312 73.042969 28.183594 83.75 28.757812 95.019531 C 30.410156 127.589844 57.214844 152.902344 89.347656 153.015625 C 88.175781 153.132812 86.992188 153.226562 85.796875 153.289062 C 48.390625 155.1875 16.519531 126.320312 14.613281 88.804688 C 13.867188 74.15625 17.800781 60.355469 25.101562 48.859375 C 27.46875 49.835938 29.277344 51.015625 30.714844 52.519531 " fill-opacity="1" fill-rule="nonzero"/></g></g></g></g><g clip-path="url(#89720650f3)"><g clip-path="url(#e08dbc4a27)"><g clip-path="url(#e4da76041d)"><g clip-path="url(#096c2e55cb)"><path fill="#f68712" d="M 1.40625 41.890625 C 35.179688 45.746094 37.652344 48.332031 40.046875 82.335938 C 43.882812 48.46875 46.460938 45.988281 80.367188 43.597656 C 46.59375 39.742188 44.121094 37.15625 41.726562 3.152344 C 37.890625 37.019531 35.3125 39.496094 1.40625 41.890625 " fill-opacity="1" fill-rule="nonzero"/></g></g></g></g><g fill="#000000" fill-opacity="1"><g transform="translate(45.88071, 109.564661)"><g><path d="M 17.015625 -12.359375 C 17.015625 -10.179688 17.097656 -8.457031 17.265625 -7.1875 C 17.441406 -5.925781 17.78125 -4.945312 18.28125 -4.25 C 18.78125 -3.550781 19.5 -3.09375 20.4375 -2.875 C 21.375 -2.65625 22.609375 -2.523438 24.140625 -2.484375 L 24.140625 0 L 2.9375 0 L 2.9375 -2.484375 C 4.46875 -2.523438 5.703125 -2.664062 6.640625 -2.90625 C 7.578125 -3.144531 8.304688 -3.59375 8.828125 -4.25 C 9.347656 -4.90625 9.695312 -5.832031 9.875 -7.03125 C 10.050781 -8.226562 10.140625 -9.851562 10.140625 -11.90625 L 10.140625 -38.46875 C 10.140625 -40.300781 10.0625 -41.816406 9.90625 -43.015625 C 9.757812 -44.210938 9.457031 -45.160156 9 -45.859375 C 8.539062 -46.554688 7.875 -47.046875 7 -47.328125 C 6.125 -47.617188 4.988281 -47.804688 3.59375 -47.890625 L 3.59375 -50.375 L 23.484375 -50.375 L 23.484375 -47.890625 C 22.085938 -47.847656 20.960938 -47.671875 20.109375 -47.359375 C 19.265625 -47.054688 18.613281 -46.546875 18.15625 -45.828125 C 17.695312 -45.109375 17.390625 -44.113281 17.234375 -42.84375 C 17.085938 -41.582031 17.015625 -39.972656 17.015625 -38.015625 Z M 17.015625 -12.359375 "/></g></g></g><g fill="#000000" fill-opacity="1"><g transform="translate(73.028455, 109.564661)"><g><path d="M 17.015625 -10.40625 C 17.015625 -8.75 17.097656 -7.394531 17.265625 -6.34375 C 17.441406 -5.300781 17.789062 -4.492188 18.3125 -3.921875 C 18.84375 -3.359375 19.5625 -2.976562 20.46875 -2.78125 C 21.382812 -2.582031 22.609375 -2.484375 24.140625 -2.484375 L 24.140625 0 L 2.9375 0 L 2.9375 -2.484375 C 4.46875 -2.484375 5.703125 -2.582031 6.640625 -2.78125 C 7.578125 -2.976562 8.304688 -3.347656 8.828125 -3.890625 C 9.347656 -4.429688 9.695312 -5.191406 9.875 -6.171875 C 10.050781 -7.160156 10.140625 -8.414062 10.140625 -9.9375 L 10.140625 -40.4375 C 10.140625 -42.09375 10.039062 -43.410156 9.84375 -44.390625 C 9.644531 -45.367188 9.296875 -46.117188 8.796875 -46.640625 C 8.296875 -47.171875 7.628906 -47.507812 6.796875 -47.65625 C 5.972656 -47.8125 4.90625 -47.890625 3.59375 -47.890625 L 3.59375 -50.375 L 23.484375 -50.375 L 23.484375 -47.890625 C 22.179688 -47.890625 21.113281 -47.800781 20.28125 -47.625 C 19.445312 -47.445312 18.78125 -47.078125 18.28125 -46.515625 C 17.78125 -45.953125 17.441406 -45.15625 17.265625 -44.125 C 17.097656 -43.101562 17.015625 -41.71875 17.015625 -39.96875 L 17.015625 -23.8125 L 33.359375 -43.5 C 34.234375 -44.59375 34.671875 -45.445312 34.671875 -46.0625 C 34.671875 -47.28125 33.425781 -47.890625 30.9375 -47.890625 L 30.9375 -50.375 L 46.71875 -50.375 L 46.71875 -47.953125 C 45.84375 -47.953125 45.078125 -47.894531 44.421875 -47.78125 C 43.765625 -47.675781 43.117188 -47.445312 42.484375 -47.09375 C 41.859375 -46.75 41.195312 -46.25 40.5 -45.59375 C 39.800781 -44.945312 38.992188 -44.097656 38.078125 -43.046875 L 25.78125 -28.84375 L 44.875 -5.890625 C 45.96875 -4.617188 46.992188 -3.734375 47.953125 -3.234375 C 48.910156 -2.734375 50.195312 -2.484375 51.8125 -2.484375 L 51.8125 0 L 31.734375 0 L 31.734375 -2.484375 C 33.429688 -2.484375 34.648438 -2.625 35.390625 -2.90625 C 36.128906 -3.195312 36.5 -3.644531 36.5 -4.25 C 36.5 -4.601562 36.320312 -5.101562 35.96875 -5.75 C 35.625 -6.40625 35.0625 -7.210938 34.28125 -8.171875 L 21.53125 -23.875 L 17.015625 -18.640625 Z M 17.015625 -10.40625 "/></g></g></g><g fill="#000000" fill-opacity="1"><g transform="translate(165.473512, 80.077153)"><g><path d="M 1.0625 0 L 1.0625 -2.046875 L 2.6875 -2.046875 C 2.96875 -2.046875 3.226562 -2.070312 3.46875 -2.125 C 3.707031 -2.1875 3.914062 -2.300781 4.09375 -2.46875 C 4.269531 -2.644531 4.40625 -2.894531 4.5 -3.21875 C 4.601562 -3.550781 4.65625 -3.992188 4.65625 -4.546875 L 4.65625 -22.890625 C 4.65625 -23.441406 4.601562 -23.878906 4.5 -24.203125 C 4.40625 -24.535156 4.269531 -24.785156 4.09375 -24.953125 C 3.914062 -25.128906 3.707031 -25.242188 3.46875 -25.296875 C 3.226562 -25.359375 2.96875 -25.390625 2.6875 -25.390625 L 1.0625 -25.390625 L 1.0625 -27.4375 L 14.34375 -27.4375 L 14.34375 -25.390625 L 12.71875 -25.390625 C 12.445312 -25.390625 12.1875 -25.359375 11.9375 -25.296875 C 11.695312 -25.242188 11.488281 -25.128906 11.3125 -24.953125 C 11.132812 -24.785156 10.992188 -24.535156 10.890625 -24.203125 C 10.796875 -23.878906 10.75 -23.441406 10.75 -22.890625 L 10.75 -4.546875 C 10.75 -3.992188 10.796875 -3.550781 10.890625 -3.21875 C 10.992188 -2.894531 11.132812 -2.644531 11.3125 -2.46875 C 11.488281 -2.300781 11.695312 -2.1875 11.9375 -2.125 C 12.1875 -2.070312 12.445312 -2.046875 12.71875 -2.046875 L 14.34375 -2.046875 L 14.34375 0 Z M 1.0625 0 "/></g></g></g><g fill="#000000" fill-opacity="1"><g transform="translate(180.879913, 80.077153)"><g><path d="M 22.515625 0 L 7.53125 -21.171875 L 7.53125 -4.546875 C 7.53125 -3.992188 7.582031 -3.550781 7.6875 -3.21875 C 7.789062 -2.894531 7.929688 -2.644531 8.109375 -2.46875 C 8.285156 -2.300781 8.492188 -2.1875 8.734375 -2.125 C 8.984375 -2.070312 9.238281 -2.046875 9.5 -2.046875 L 11.109375 -2.046875 L 11.109375 0 L 1.0625 0 L 1.0625 -2.046875 L 2.6875 -2.046875 C 2.957031 -2.046875 3.210938 -2.070312 3.453125 -2.125 C 3.691406 -2.1875 3.898438 -2.300781 4.078125 -2.46875 C 4.265625 -2.644531 4.40625 -2.894531 4.5 -3.21875 C 4.601562 -3.550781 4.65625 -3.992188 4.65625 -4.546875 L 4.65625 -23.0625 C 4.65625 -23.570312 4.597656 -23.976562 4.484375 -24.28125 C 4.378906 -24.59375 4.238281 -24.832031 4.0625 -25 C 3.882812 -25.164062 3.675781 -25.273438 3.4375 -25.328125 C 3.195312 -25.378906 2.945312 -25.40625 2.6875 -25.40625 L 1.0625 -25.40625 L 1.0625 -27.4375 L 9.609375 -27.4375 L 23.171875 -8.265625 L 23.171875 -23.0625 C 23.171875 -23.570312 23.117188 -23.976562 23.015625 -24.28125 C 22.910156 -24.59375 22.765625 -24.832031 22.578125 -25 C 22.398438 -25.164062 22.191406 -25.273438 21.953125 -25.328125 C 21.722656 -25.378906 21.472656 -25.40625 21.203125 -25.40625 L 19.59375 -25.40625 L 19.59375 -27.4375 L 29.640625 -27.4375 L 29.640625 -25.40625 L 28.015625 -25.40625 C 27.753906 -25.40625 27.503906 -25.378906 27.265625 -25.328125 C 27.023438 -25.273438 26.816406 -25.160156 26.640625 -24.984375 C 26.460938 -24.804688 26.320312 -24.550781 26.21875 -24.21875 C 26.113281 -23.894531 26.0625 -23.460938 26.0625 -22.921875 L 26.0625 0 Z M 22.515625 0 "/></g></g></g><g fill="#000000" fill-opacity="1"><g transform="translate(211.167265, 80.077153)"><g><path d="M 15.59375 -4.546875 C 15.59375 -3.992188 15.640625 -3.550781 15.734375 -3.21875 C 15.835938 -2.894531 15.976562 -2.644531 16.15625 -2.46875 C 16.34375 -2.300781 16.554688 -2.1875 16.796875 -2.125 C 17.035156 -2.070312 17.289062 -2.046875 17.5625 -2.046875 L 19.1875 -2.046875 L 19.1875 0 L 5.90625 0 L 5.90625 -2.046875 L 7.53125 -2.046875 C 7.8125 -2.046875 8.070312 -2.070312 8.3125 -2.125 C 8.550781 -2.1875 8.757812 -2.300781 8.9375 -2.46875 C 9.113281 -2.644531 9.25 -2.894531 9.34375 -3.21875 C 9.445312 -3.550781 9.5 -3.992188 9.5 -4.546875 L 9.5 -25.09375 L 6.421875 -25.09375 C 5.847656 -25.09375 5.363281 -25.03125 4.96875 -24.90625 C 4.582031 -24.78125 4.265625 -24.601562 4.015625 -24.375 C 3.773438 -24.144531 3.59375 -23.859375 3.46875 -23.515625 C 3.351562 -23.179688 3.273438 -22.800781 3.234375 -22.375 L 2.96875 -19.984375 L 0.375 -19.984375 L 0.578125 -27.4375 L 24.53125 -27.4375 L 24.71875 -19.984375 L 22.140625 -19.984375 L 21.859375 -22.375 C 21.816406 -22.800781 21.734375 -23.179688 21.609375 -23.515625 C 21.492188 -23.859375 21.3125 -24.144531 21.0625 -24.375 C 20.820312 -24.601562 20.503906 -24.78125 20.109375 -24.90625 C 19.722656 -25.03125 19.242188 -25.09375 18.671875 -25.09375 L 15.59375 -25.09375 Z M 15.59375 -4.546875 "/></g></g></g><g fill="#000000" fill-opacity="1"><g transform="translate(236.256611, 80.077153)"><g><path d="M 10.75 -2.34375 L 18.453125 -2.34375 C 18.835938 -2.34375 19.164062 -2.414062 19.4375 -2.5625 C 19.71875 -2.707031 19.957031 -2.910156 20.15625 -3.171875 C 20.351562 -3.429688 20.507812 -3.738281 20.625 -4.09375 C 20.75 -4.457031 20.84375 -4.851562 20.90625 -5.28125 L 21.203125 -7.078125 L 23.875 -7.078125 L 23.59375 0 L 1.0625 0 L 1.0625 -2.046875 L 2.6875 -2.046875 C 2.957031 -2.046875 3.210938 -2.070312 3.453125 -2.125 C 3.691406 -2.175781 3.898438 -2.28125 4.078125 -2.4375 C 4.265625 -2.59375 4.40625 -2.820312 4.5 -3.125 C 4.601562 -3.425781 4.65625 -3.828125 4.65625 -4.328125 L 4.65625 -22.921875 C 4.65625 -23.460938 4.601562 -23.894531 4.5 -24.21875 C 4.40625 -24.550781 4.269531 -24.804688 4.09375 -24.984375 C 3.914062 -25.160156 3.707031 -25.273438 3.46875 -25.328125 C 3.226562 -25.378906 2.96875 -25.40625 2.6875 -25.40625 L 1.0625 -25.40625 L 1.0625 -27.4375 L 22.40625 -27.4375 L 22.5625 -20.359375 L 19.875 -20.359375 L 19.6875 -22.1875 C 19.582031 -23.125 19.34375 -23.84375 18.96875 -24.34375 C 18.59375 -24.84375 18.015625 -25.09375 17.234375 -25.09375 L 10.75 -25.09375 L 10.75 -15.484375 L 19.875 -15.484375 L 19.875 -13.171875 L 10.75 -13.171875 Z M 10.75 -2.34375 "/></g></g></g><g fill="#000000" fill-opacity="1"><g transform="translate(261.345957, 80.077153)"><g><path d="M 1.0625 -2.046875 L 2.6875 -2.046875 C 2.945312 -2.046875 3.195312 -2.070312 3.4375 -2.125 C 3.675781 -2.175781 3.882812 -2.28125 4.0625 -2.4375 C 4.238281 -2.59375 4.378906 -2.820312 4.484375 -3.125 C 4.597656 -3.425781 4.65625 -3.828125 4.65625 -4.328125 L 4.65625 -23.0625 C 4.65625 -23.570312 4.597656 -23.976562 4.484375 -24.28125 C 4.378906 -24.59375 4.238281 -24.832031 4.0625 -25 C 3.882812 -25.164062 3.675781 -25.273438 3.4375 -25.328125 C 3.195312 -25.378906 2.945312 -25.40625 2.6875 -25.40625 L 1.0625 -25.40625 L 1.0625 -27.4375 L 13.453125 -27.4375 C 17.085938 -27.4375 19.75 -26.828125 21.4375 -25.609375 C 23.132812 -24.398438 23.984375 -22.640625 23.984375 -20.328125 C 23.984375 -19.316406 23.832031 -18.414062 23.53125 -17.625 C 23.226562 -16.832031 22.832031 -16.140625 22.34375 -15.546875 C 21.851562 -14.960938 21.289062 -14.46875 20.65625 -14.0625 C 20.03125 -13.65625 19.394531 -13.320312 18.75 -13.0625 L 23.328125 -5.1875 C 23.648438 -4.632812 23.960938 -4.160156 24.265625 -3.765625 C 24.578125 -3.367188 24.882812 -3.039062 25.1875 -2.78125 C 25.5 -2.53125 25.816406 -2.34375 26.140625 -2.21875 C 26.460938 -2.101562 26.804688 -2.046875 27.171875 -2.046875 L 27.328125 -2.046875 L 27.328125 0 L 26.0625 0 C 24.914062 0 23.910156 -0.0390625 23.046875 -0.125 C 22.191406 -0.21875 21.441406 -0.390625 20.796875 -0.640625 C 20.160156 -0.898438 19.609375 -1.253906 19.140625 -1.703125 C 18.671875 -2.160156 18.234375 -2.742188 17.828125 -3.453125 L 13.265625 -11.921875 L 10.71875 -11.921875 L 10.71875 -4.328125 C 10.71875 -3.828125 10.769531 -3.425781 10.875 -3.125 C 10.976562 -2.820312 11.117188 -2.59375 11.296875 -2.4375 C 11.484375 -2.28125 11.695312 -2.175781 11.9375 -2.125 C 12.175781 -2.070312 12.425781 -2.046875 12.6875 -2.046875 L 14.34375 -2.046875 L 14.34375 0 L 1.0625 0 Z M 10.71875 -14.15625 L 12.875 -14.15625 C 13.757812 -14.15625 14.5 -14.269531 15.09375 -14.5 C 15.6875 -14.738281 16.160156 -15.09375 16.515625 -15.5625 C 16.878906 -16.03125 17.140625 -16.617188 17.296875 -17.328125 C 17.453125 -18.035156 17.53125 -18.859375 17.53125 -19.796875 C 17.53125 -20.773438 17.441406 -21.601562 17.265625 -22.28125 C 17.085938 -22.957031 16.8125 -23.507812 16.4375 -23.9375 C 16.0625 -24.375 15.570312 -24.6875 14.96875 -24.875 C 14.375 -25.070312 13.648438 -25.171875 12.796875 -25.171875 L 10.71875 -25.171875 Z M 10.71875 -14.15625 "/></g></g></g><g fill="#000000" fill-opacity="1"><g transform="translate(288.518253, 80.077153)"><g><path d="M 1.0625 0 L 1.0625 -2.046875 L 2.6875 -2.046875 C 2.96875 -2.046875 3.226562 -2.070312 3.46875 -2.125 C 3.707031 -2.1875 3.914062 -2.300781 4.09375 -2.46875 C 4.269531 -2.644531 4.40625 -2.894531 4.5 -3.21875 C 4.601562 -3.550781 4.65625 -3.992188 4.65625 -4.546875 L 4.65625 -22.890625 C 4.65625 -23.441406 4.601562 -23.878906 4.5 -24.203125 C 4.40625 -24.535156 4.269531 -24.785156 4.09375 -24.953125 C 3.914062 -25.128906 3.707031 -25.242188 3.46875 -25.296875 C 3.226562 -25.359375 2.96875 -25.390625 2.6875 -25.390625 L 1.0625 -25.390625 L 1.0625 -27.4375 L 14.34375 -27.4375 L 14.34375 -25.390625 L 12.71875 -25.390625 C 12.445312 -25.390625 12.1875 -25.359375 11.9375 -25.296875 C 11.695312 -25.242188 11.488281 -25.128906 11.3125 -24.953125 C 11.132812 -24.785156 10.992188 -24.535156 10.890625 -24.203125 C 10.796875 -23.878906 10.75 -23.441406 10.75 -22.890625 L 10.75 -4.546875 C 10.75 -3.992188 10.796875 -3.550781 10.890625 -3.21875 C 10.992188 -2.894531 11.132812 -2.644531 11.3125 -2.46875 C 11.488281 -2.300781 11.695312 -2.1875 11.9375 -2.125 C 12.1875 -2.070312 12.445312 -2.046875 12.71875 -2.046875 L 14.34375 -2.046875 L 14.34375 0 Z M 1.0625 0 "/></g></g></g><g fill="#000000" fill-opacity="1"><g transform="translate(303.924653, 80.077153)"><g><path d="M 28.140625 -13.75 C 28.140625 -11.632812 27.851562 -9.707031 27.28125 -7.96875 C 26.707031 -6.238281 25.867188 -4.753906 24.765625 -3.515625 C 23.660156 -2.273438 22.300781 -1.316406 20.6875 -0.640625 C 19.082031 0.0351562 17.234375 0.375 15.140625 0.375 C 12.953125 0.375 11.039062 0.0351562 9.40625 -0.640625 C 7.78125 -1.316406 6.425781 -2.273438 5.34375 -3.515625 C 4.269531 -4.753906 3.460938 -6.242188 2.921875 -7.984375 C 2.390625 -9.734375 2.125 -11.671875 2.125 -13.796875 C 2.125 -15.921875 2.390625 -17.847656 2.921875 -19.578125 C 3.460938 -21.316406 4.273438 -22.796875 5.359375 -24.015625 C 6.441406 -25.242188 7.796875 -26.191406 9.421875 -26.859375 C 11.054688 -27.535156 12.976562 -27.875 15.1875 -27.875 C 17.257812 -27.875 19.097656 -27.535156 20.703125 -26.859375 C 22.316406 -26.191406 23.671875 -25.242188 24.765625 -24.015625 C 25.867188 -22.785156 26.707031 -21.300781 27.28125 -19.5625 C 27.851562 -17.832031 28.140625 -15.894531 28.140625 -13.75 Z M 8.578125 -13.75 C 8.578125 -11.914062 8.695312 -10.28125 8.9375 -8.84375 C 9.175781 -7.40625 9.554688 -6.1875 10.078125 -5.1875 C 10.597656 -4.195312 11.273438 -3.4375 12.109375 -2.90625 C 12.941406 -2.382812 13.953125 -2.125 15.140625 -2.125 C 16.347656 -2.125 17.363281 -2.382812 18.1875 -2.90625 C 19.019531 -3.4375 19.691406 -4.195312 20.203125 -5.1875 C 20.722656 -6.1875 21.097656 -7.40625 21.328125 -8.84375 C 21.554688 -10.28125 21.671875 -11.914062 21.671875 -13.75 C 21.671875 -15.59375 21.554688 -17.234375 21.328125 -18.671875 C 21.097656 -20.109375 20.722656 -21.320312 20.203125 -22.3125 C 19.691406 -23.3125 19.023438 -24.070312 18.203125 -24.59375 C 17.378906 -25.113281 16.375 -25.375 15.1875 -25.375 C 13.976562 -25.375 12.953125 -25.113281 12.109375 -24.59375 C 11.273438 -24.070312 10.597656 -23.3125 10.078125 -22.3125 C 9.554688 -21.320312 9.175781 -20.109375 8.9375 -18.671875 C 8.695312 -17.234375 8.578125 -15.59375 8.578125 -13.75 Z M 8.578125 -13.75 "/></g></g></g><g fill="#000000" fill-opacity="1"><g transform="translate(334.174475, 80.077153)"><g><path d="M 1.0625 -2.046875 L 2.6875 -2.046875 C 2.945312 -2.046875 3.195312 -2.070312 3.4375 -2.125 C 3.675781 -2.175781 3.882812 -2.28125 4.0625 -2.4375 C 4.238281 -2.59375 4.378906 -2.820312 4.484375 -3.125 C 4.597656 -3.425781 4.65625 -3.828125 4.65625 -4.328125 L 4.65625 -23.0625 C 4.65625 -23.570312 4.597656 -23.976562 4.484375 -24.28125 C 4.378906 -24.59375 4.238281 -24.832031 4.0625 -25 C 3.882812 -25.164062 3.675781 -25.273438 3.4375 -25.328125 C 3.195312 -25.378906 2.945312 -25.40625 2.6875 -25.40625 L 1.0625 -25.40625 L 1.0625 -27.4375 L 13.453125 -27.4375 C 17.085938 -27.4375 19.75 -26.828125 21.4375 -25.609375 C 23.132812 -24.398438 23.984375 -22.640625 23.984375 -20.328125 C 23.984375 -19.316406 23.832031 -18.414062 23.53125 -17.625 C 23.226562 -16.832031 22.832031 -16.140625 22.34375 -15.546875 C 21.851562 -14.960938 21.289062 -14.46875 20.65625 -14.0625 C 20.03125 -13.65625 19.394531 -13.320312 18.75 -13.0625 L 23.328125 -5.1875 C 23.648438 -4.632812 23.960938 -4.160156 24.265625 -3.765625 C 24.578125 -3.367188 24.882812 -3.039062 25.1875 -2.78125 C 25.5 -2.53125 25.816406 -2.34375 26.140625 -2.21875 C 26.460938 -2.101562 26.804688 -2.046875 27.171875 -2.046875 L 27.328125 -2.046875 L 27.328125 0 L 26.0625 0 C 24.914062 0 23.910156 -0.0390625 23.046875 -0.125 C 22.191406 -0.21875 21.441406 -0.390625 20.796875 -0.640625 C 20.160156 -0.898438 19.609375 -1.253906 19.140625 -1.703125 C 18.671875 -2.160156 18.234375 -2.742188 17.828125 -3.453125 L 13.265625 -11.921875 L 10.71875 -11.921875 L 10.71875 -4.328125 C 10.71875 -3.828125 10.769531 -3.425781 10.875 -3.125 C 10.976562 -2.820312 11.117188 -2.59375 11.296875 -2.4375 C 11.484375 -2.28125 11.695312 -2.175781 11.9375 -2.125 C 12.175781 -2.070312 12.425781 -2.046875 12.6875 -2.046875 L 14.34375 -2.046875 L 14.34375 0 L 1.0625 0 Z M 10.71875 -14.15625 L 12.875 -14.15625 C 13.757812 -14.15625 14.5 -14.269531 15.09375 -14.5 C 15.6875 -14.738281 16.160156 -15.09375 16.515625 -15.5625 C 16.878906 -16.03125 17.140625 -16.617188 17.296875 -17.328125 C 17.453125 -18.035156 17.53125 -18.859375 17.53125 -19.796875 C 17.53125 -20.773438 17.441406 -21.601562 17.265625 -22.28125 C 17.085938 -22.957031 16.8125 -23.507812 16.4375 -23.9375 C 16.0625 -24.375 15.570312 -24.6875 14.96875 -24.875 C 14.375 -25.070312 13.648438 -25.171875 12.796875 -25.171875 L 10.71875 -25.171875 Z M 10.71875 -14.15625 "/></g></g></g><g fill="#000000" fill-opacity="1"><g transform="translate(361.342818, 80.077153)"><g/></g></g><g fill="#8b2f29" fill-opacity="1"><g transform="translate(165.473512, 125.433484)"><g><path d="M 16.6875 -20.453125 C 17.09375 -20.890625 17.4375 -21.285156 17.71875 -21.640625 C 18.007812 -22.003906 18.238281 -22.335938 18.40625 -22.640625 C 18.570312 -22.953125 18.691406 -23.242188 18.765625 -23.515625 C 18.835938 -23.785156 18.875 -24.054688 18.875 -24.328125 C 18.875 -24.753906 18.710938 -25.046875 18.390625 -25.203125 C 18.066406 -25.367188 17.507812 -25.453125 16.71875 -25.453125 L 16.71875 -27.4375 L 27.140625 -27.4375 L 27.140625 -25.453125 C 26.609375 -25.453125 26.109375 -25.367188 25.640625 -25.203125 C 25.171875 -25.046875 24.710938 -24.816406 24.265625 -24.515625 C 23.816406 -24.210938 23.375 -23.851562 22.9375 -23.4375 C 22.5 -23.03125 22.054688 -22.578125 21.609375 -22.078125 L 16.53125 -16.5 L 23.6875 -5.140625 C 24.0625 -4.535156 24.421875 -4.035156 24.765625 -3.640625 C 25.109375 -3.253906 25.453125 -2.941406 25.796875 -2.703125 C 26.148438 -2.460938 26.507812 -2.289062 26.875 -2.1875 C 27.238281 -2.09375 27.632812 -2.046875 28.0625 -2.046875 L 28.203125 -2.046875 L 28.203125 0 L 26.140625 0 C 25.171875 0 24.316406 -0.03125 23.578125 -0.09375 C 22.835938 -0.15625 22.1875 -0.25 21.625 -0.375 C 21.070312 -0.5 20.59375 -0.65625 20.1875 -0.84375 C 19.789062 -1.039062 19.441406 -1.269531 19.140625 -1.53125 C 18.835938 -1.800781 18.566406 -2.097656 18.328125 -2.421875 C 18.085938 -2.753906 17.847656 -3.125 17.609375 -3.53125 L 12.421875 -12.375 L 10.71875 -11.03125 L 10.71875 -4.546875 C 10.71875 -3.992188 10.769531 -3.550781 10.875 -3.21875 C 10.976562 -2.894531 11.117188 -2.644531 11.296875 -2.46875 C 11.472656 -2.300781 11.6875 -2.1875 11.9375 -2.125 C 12.1875 -2.070312 12.445312 -2.046875 12.71875 -2.046875 L 14.34375 -2.046875 L 14.34375 0 L 1.0625 0 L 1.0625 -2.046875 L 2.6875 -2.046875 C 2.957031 -2.046875 3.210938 -2.070312 3.453125 -2.125 C 3.691406 -2.175781 3.898438 -2.28125 4.078125 -2.4375 C 4.265625 -2.59375 4.40625 -2.820312 4.5 -3.125 C 4.601562 -3.425781 4.65625 -3.828125 4.65625 -4.328125 L 4.65625 -23.0625 C 4.65625 -23.570312 4.601562 -23.976562 4.5 -24.28125 C 4.40625 -24.59375 4.265625 -24.832031 4.078125 -25 C 3.898438 -25.164062 3.691406 -25.273438 3.453125 -25.328125 C 3.210938 -25.378906 2.957031 -25.40625 2.6875 -25.40625 L 1.0625 -25.40625 L 1.0625 -27.4375 L 14.34375 -27.4375 L 14.34375 -25.40625 L 12.71875 -25.40625 C 12.445312 -25.40625 12.1875 -25.378906 11.9375 -25.328125 C 11.6875 -25.273438 11.472656 -25.160156 11.296875 -24.984375 C 11.117188 -24.804688 10.976562 -24.550781 10.875 -24.21875 C 10.769531 -23.894531 10.71875 -23.460938 10.71875 -22.921875 L 10.71875 -13.9375 Z M 16.6875 -20.453125 "/></g></g></g><g fill="#8b2f29" fill-opacity="1"><g transform="translate(193.677914, 125.433484)"><g><path d="M 8.375 -9.03125 L 7.265625 -5.71875 C 7.160156 -5.40625 7.054688 -5.039062 6.953125 -4.625 C 6.847656 -4.207031 6.796875 -3.84375 6.796875 -3.53125 C 6.796875 -3.28125 6.84375 -3.0625 6.9375 -2.875 C 7.039062 -2.6875 7.171875 -2.53125 7.328125 -2.40625 C 7.492188 -2.289062 7.679688 -2.203125 7.890625 -2.140625 C 8.097656 -2.078125 8.316406 -2.046875 8.546875 -2.046875 L 10.15625 -2.046875 L 10.15625 0 L 0.15625 0 L 0.15625 -2.046875 L 0.625 -2.046875 C 0.957031 -2.046875 1.265625 -2.082031 1.546875 -2.15625 C 1.828125 -2.226562 2.085938 -2.367188 2.328125 -2.578125 C 2.578125 -2.785156 2.8125 -3.070312 3.03125 -3.4375 C 3.25 -3.800781 3.472656 -4.269531 3.703125 -4.84375 L 12.03125 -27.4375 L 17.296875 -27.4375 L 25.34375 -4.8125 C 25.53125 -4.269531 25.722656 -3.816406 25.921875 -3.453125 C 26.128906 -3.097656 26.351562 -2.816406 26.59375 -2.609375 C 26.84375 -2.410156 27.101562 -2.265625 27.375 -2.171875 C 27.65625 -2.085938 27.945312 -2.046875 28.25 -2.046875 L 28.9375 -2.046875 L 28.9375 0 L 16.25 0 L 16.25 -2.046875 L 17.75 -2.046875 C 17.9375 -2.046875 18.128906 -2.070312 18.328125 -2.125 C 18.535156 -2.1875 18.71875 -2.273438 18.875 -2.390625 C 19.03125 -2.515625 19.15625 -2.671875 19.25 -2.859375 C 19.351562 -3.046875 19.40625 -3.269531 19.40625 -3.53125 C 19.40625 -3.84375 19.367188 -4.140625 19.296875 -4.421875 C 19.222656 -4.710938 19.144531 -4.96875 19.0625 -5.1875 L 17.71875 -9.03125 Z M 14.921875 -17.6875 C 14.785156 -18.125 14.644531 -18.582031 14.5 -19.0625 C 14.351562 -19.539062 14.207031 -20.03125 14.0625 -20.53125 C 13.914062 -21.03125 13.773438 -21.523438 13.640625 -22.015625 C 13.515625 -22.515625 13.40625 -22.988281 13.3125 -23.4375 C 13.195312 -23.050781 13.0625 -22.625 12.90625 -22.15625 C 12.757812 -21.695312 12.601562 -21.222656 12.4375 -20.734375 C 12.269531 -20.242188 12.097656 -19.753906 11.921875 -19.265625 C 11.753906 -18.785156 11.597656 -18.320312 11.453125 -17.875 L 9.171875 -11.375 L 16.953125 -11.375 Z M 14.921875 -17.6875 "/></g></g></g><g fill="#8b2f29" fill-opacity="1"><g transform="translate(222.614158, 125.433484)"><g><path d="M 1.0625 -2.046875 L 2.6875 -2.046875 C 2.945312 -2.046875 3.195312 -2.070312 3.4375 -2.125 C 3.675781 -2.175781 3.882812 -2.28125 4.0625 -2.4375 C 4.238281 -2.59375 4.378906 -2.820312 4.484375 -3.125 C 4.597656 -3.425781 4.65625 -3.828125 4.65625 -4.328125 L 4.65625 -23.0625 C 4.65625 -23.570312 4.597656 -23.976562 4.484375 -24.28125 C 4.378906 -24.59375 4.238281 -24.832031 4.0625 -25 C 3.882812 -25.164062 3.675781 -25.273438 3.4375 -25.328125 C 3.195312 -25.378906 2.945312 -25.40625 2.6875 -25.40625 L 1.0625 -25.40625 L 1.0625 -27.4375 L 13.453125 -27.4375 C 17.085938 -27.4375 19.75 -26.828125 21.4375 -25.609375 C 23.132812 -24.398438 23.984375 -22.640625 23.984375 -20.328125 C 23.984375 -19.316406 23.832031 -18.414062 23.53125 -17.625 C 23.226562 -16.832031 22.832031 -16.140625 22.34375 -15.546875 C 21.851562 -14.960938 21.289062 -14.46875 20.65625 -14.0625 C 20.03125 -13.65625 19.394531 -13.320312 18.75 -13.0625 L 23.328125 -5.1875 C 23.648438 -4.632812 23.960938 -4.160156 24.265625 -3.765625 C 24.578125 -3.367188 24.882812 -3.039062 25.1875 -2.78125 C 25.5 -2.53125 25.816406 -2.34375 26.140625 -2.21875 C 26.460938 -2.101562 26.804688 -2.046875 27.171875 -2.046875 L 27.328125 -2.046875 L 27.328125 0 L 26.0625 0 C 24.914062 0 23.910156 -0.0390625 23.046875 -0.125 C 22.191406 -0.21875 21.441406 -0.390625 20.796875 -0.640625 C 20.160156 -0.898438 19.609375 -1.253906 19.140625 -1.703125 C 18.671875 -2.160156 18.234375 -2.742188 17.828125 -3.453125 L 13.265625 -11.921875 L 10.71875 -11.921875 L 10.71875 -4.328125 C 10.71875 -3.828125 10.769531 -3.425781 10.875 -3.125 C 10.976562 -2.820312 11.117188 -2.59375 11.296875 -2.4375 C 11.484375 -2.28125 11.695312 -2.175781 11.9375 -2.125 C 12.175781 -2.070312 12.425781 -2.046875 12.6875 -2.046875 L 14.34375 -2.046875 L 14.34375 0 L 1.0625 0 Z M 10.71875 -14.15625 L 12.875 -14.15625 C 13.757812 -14.15625 14.5 -14.269531 15.09375 -14.5 C 15.6875 -14.738281 16.160156 -15.09375 16.515625 -15.5625 C 16.878906 -16.03125 17.140625 -16.617188 17.296875 -17.328125 C 17.453125 -18.035156 17.53125 -18.859375 17.53125 -19.796875 C 17.53125 -20.773438 17.441406 -21.601562 17.265625 -22.28125 C 17.085938 -22.957031 16.8125 -23.507812 16.4375 -23.9375 C 16.0625 -24.375 15.570312 -24.6875 14.96875 -24.875 C 14.375 -25.070312 13.648438 -25.171875 12.796875 -25.171875 L 10.71875 -25.171875 Z M 10.71875 -14.15625 "/></g></g></g><g fill="#8b2f29" fill-opacity="1"><g transform="translate(249.786454, 125.433484)"><g><path d="M 23.21875 -27.171875 L 28.53125 -12.5 C 28.75 -11.894531 28.957031 -11.28125 29.15625 -10.65625 C 29.351562 -10.039062 29.53125 -9.453125 29.6875 -8.890625 C 29.851562 -8.328125 30 -7.804688 30.125 -7.328125 C 30.25 -6.859375 30.34375 -6.457031 30.40625 -6.125 C 30.507812 -6.582031 30.613281 -7.09375 30.71875 -7.65625 C 30.832031 -8.21875 30.953125 -8.804688 31.078125 -9.421875 C 31.210938 -10.046875 31.351562 -10.679688 31.5 -11.328125 C 31.644531 -11.984375 31.789062 -12.617188 31.9375 -13.234375 L 33.96875 -21.53125 C 34.007812 -21.675781 34.050781 -21.847656 34.09375 -22.046875 C 34.132812 -22.253906 34.171875 -22.453125 34.203125 -22.640625 C 34.242188 -22.835938 34.273438 -23.019531 34.296875 -23.1875 C 34.316406 -23.351562 34.328125 -23.488281 34.328125 -23.59375 C 34.328125 -24.257812 34.128906 -24.726562 33.734375 -25 C 33.335938 -25.269531 32.71875 -25.40625 31.875 -25.40625 L 30.984375 -25.40625 L 30.984375 -27.4375 L 41.015625 -27.4375 L 41.015625 -25.40625 L 40.28125 -25.40625 C 39.90625 -25.40625 39.570312 -25.367188 39.28125 -25.296875 C 38.988281 -25.222656 38.726562 -25.078125 38.5 -24.859375 C 38.28125 -24.640625 38.078125 -24.332031 37.890625 -23.9375 C 37.710938 -23.550781 37.539062 -23.039062 37.375 -22.40625 L 31.40625 0 L 27.03125 0 L 20.5625 -18.03125 L 15.03125 0 L 10.265625 0 L 3.234375 -23.359375 C 3.117188 -23.765625 2.976562 -24.097656 2.8125 -24.359375 C 2.65625 -24.617188 2.46875 -24.828125 2.25 -24.984375 C 2.03125 -25.140625 1.773438 -25.25 1.484375 -25.3125 C 1.203125 -25.375 0.875 -25.40625 0.5 -25.40625 L 0 -25.40625 L 0 -27.4375 L 12.84375 -27.4375 L 12.84375 -25.40625 L 11.953125 -25.40625 C 11.179688 -25.40625 10.601562 -25.253906 10.21875 -24.953125 C 9.832031 -24.660156 9.640625 -24.191406 9.640625 -23.546875 C 9.640625 -23.335938 9.679688 -23.03125 9.765625 -22.625 C 9.847656 -22.21875 9.941406 -21.835938 10.046875 -21.484375 L 12.609375 -12.609375 C 12.742188 -12.117188 12.890625 -11.585938 13.046875 -11.015625 C 13.203125 -10.453125 13.347656 -9.878906 13.484375 -9.296875 C 13.628906 -8.710938 13.753906 -8.148438 13.859375 -7.609375 C 13.972656 -7.078125 14.054688 -6.601562 14.109375 -6.1875 C 14.285156 -7.019531 14.476562 -7.796875 14.6875 -8.515625 C 14.894531 -9.234375 15.109375 -9.96875 15.328125 -10.71875 L 20.40625 -27.171875 Z M 23.21875 -27.171875 "/></g></g></g><g fill="#8b2f29" fill-opacity="1"><g transform="translate(290.788858, 125.433484)"><g><path d="M 8.375 -9.03125 L 7.265625 -5.71875 C 7.160156 -5.40625 7.054688 -5.039062 6.953125 -4.625 C 6.847656 -4.207031 6.796875 -3.84375 6.796875 -3.53125 C 6.796875 -3.28125 6.84375 -3.0625 6.9375 -2.875 C 7.039062 -2.6875 7.171875 -2.53125 7.328125 -2.40625 C 7.492188 -2.289062 7.679688 -2.203125 7.890625 -2.140625 C 8.097656 -2.078125 8.316406 -2.046875 8.546875 -2.046875 L 10.15625 -2.046875 L 10.15625 0 L 0.15625 0 L 0.15625 -2.046875 L 0.625 -2.046875 C 0.957031 -2.046875 1.265625 -2.082031 1.546875 -2.15625 C 1.828125 -2.226562 2.085938 -2.367188 2.328125 -2.578125 C 2.578125 -2.785156 2.8125 -3.070312 3.03125 -3.4375 C 3.25 -3.800781 3.472656 -4.269531 3.703125 -4.84375 L 12.03125 -27.4375 L 17.296875 -27.4375 L 25.34375 -4.8125 C 25.53125 -4.269531 25.722656 -3.816406 25.921875 -3.453125 C 26.128906 -3.097656 26.351562 -2.816406 26.59375 -2.609375 C 26.84375 -2.410156 27.101562 -2.265625 27.375 -2.171875 C 27.65625 -2.085938 27.945312 -2.046875 28.25 -2.046875 L 28.9375 -2.046875 L 28.9375 0 L 16.25 0 L 16.25 -2.046875 L 17.75 -2.046875 C 17.9375 -2.046875 18.128906 -2.070312 18.328125 -2.125 C 18.535156 -2.1875 18.71875 -2.273438 18.875 -2.390625 C 19.03125 -2.515625 19.15625 -2.671875 19.25 -2.859375 C 19.351562 -3.046875 19.40625 -3.269531 19.40625 -3.53125 C 19.40625 -3.84375 19.367188 -4.140625 19.296875 -4.421875 C 19.222656 -4.710938 19.144531 -4.96875 19.0625 -5.1875 L 17.71875 -9.03125 Z M 14.921875 -17.6875 C 14.785156 -18.125 14.644531 -18.582031 14.5 -19.0625 C 14.351562 -19.539062 14.207031 -20.03125 14.0625 -20.53125 C 13.914062 -21.03125 13.773438 -21.523438 13.640625 -22.015625 C 13.515625 -22.515625 13.40625 -22.988281 13.3125 -23.4375 C 13.195312 -23.050781 13.0625 -22.625 12.90625 -22.15625 C 12.757812 -21.695312 12.601562 -21.222656 12.4375 -20.734375 C 12.269531 -20.242188 12.097656 -19.753906 11.921875 -19.265625 C 11.753906 -18.785156 11.597656 -18.320312 11.453125 -17.875 L 9.171875 -11.375 L 16.953125 -11.375 Z M 14.921875 -17.6875 "/></g></g></g><g fill="#8b2f29" fill-opacity="1"><g transform="translate(319.725102, 125.433484)"><g><path d="M 1.0625 0 L 1.0625 -2.046875 L 2.6875 -2.046875 C 2.96875 -2.046875 3.226562 -2.070312 3.46875 -2.125 C 3.707031 -2.1875 3.914062 -2.300781 4.09375 -2.46875 C 4.269531 -2.644531 4.40625 -2.894531 4.5 -3.21875 C 4.601562 -3.550781 4.65625 -3.992188 4.65625 -4.546875 L 4.65625 -22.921875 C 4.65625 -23.460938 4.601562 -23.894531 4.5 -24.21875 C 4.40625 -24.550781 4.269531 -24.804688 4.09375 -24.984375 C 3.914062 -25.160156 3.707031 -25.273438 3.46875 -25.328125 C 3.226562 -25.378906 2.96875 -25.40625 2.6875 -25.40625 L 1.0625 -25.40625 L 1.0625 -27.4375 L 14.34375 -27.4375 L 14.34375 -25.40625 L 12.71875 -25.40625 C 12.457031 -25.40625 12.203125 -25.378906 11.953125 -25.328125 C 11.710938 -25.273438 11.503906 -25.164062 11.328125 -25 C 11.160156 -24.832031 11.019531 -24.59375 10.90625 -24.28125 C 10.800781 -23.976562 10.75 -23.570312 10.75 -23.0625 L 10.75 -2.34375 L 17.90625 -2.34375 C 18.800781 -2.34375 19.5 -2.625 20 -3.1875 C 20.5 -3.757812 20.863281 -4.59375 21.09375 -5.6875 L 21.71875 -8.578125 L 23.875 -8.578125 L 23.59375 0 Z M 1.0625 0 "/></g></g></g><g fill="#8b2f29" fill-opacity="1"><g transform="translate(344.851978, 125.433484)"><g><path d="M 28.140625 -13.75 C 28.140625 -11.632812 27.851562 -9.707031 27.28125 -7.96875 C 26.707031 -6.238281 25.867188 -4.753906 24.765625 -3.515625 C 23.660156 -2.273438 22.300781 -1.316406 20.6875 -0.640625 C 19.082031 0.0351562 17.234375 0.375 15.140625 0.375 C 12.953125 0.375 11.039062 0.0351562 9.40625 -0.640625 C 7.78125 -1.316406 6.425781 -2.273438 5.34375 -3.515625 C 4.269531 -4.753906 3.460938 -6.242188 2.921875 -7.984375 C 2.390625 -9.734375 2.125 -11.671875 2.125 -13.796875 C 2.125 -15.921875 2.390625 -17.847656 2.921875 -19.578125 C 3.460938 -21.316406 4.273438 -22.796875 5.359375 -24.015625 C 6.441406 -25.242188 7.796875 -26.191406 9.421875 -26.859375 C 11.054688 -27.535156 12.976562 -27.875 15.1875 -27.875 C 17.257812 -27.875 19.097656 -27.535156 20.703125 -26.859375 C 22.316406 -26.191406 23.671875 -25.242188 24.765625 -24.015625 C 25.867188 -22.785156 26.707031 -21.300781 27.28125 -19.5625 C 27.851562 -17.832031 28.140625 -15.894531 28.140625 -13.75 Z M 8.578125 -13.75 C 8.578125 -11.914062 8.695312 -10.28125 8.9375 -8.84375 C 9.175781 -7.40625 9.554688 -6.1875 10.078125 -5.1875 C 10.597656 -4.195312 11.273438 -3.4375 12.109375 -2.90625 C 12.941406 -2.382812 13.953125 -2.125 15.140625 -2.125 C 16.347656 -2.125 17.363281 -2.382812 18.1875 -2.90625 C 19.019531 -3.4375 19.691406 -4.195312 20.203125 -5.1875 C 20.722656 -6.1875 21.097656 -7.40625 21.328125 -8.84375 C 21.554688 -10.28125 21.671875 -11.914062 21.671875 -13.75 C 21.671875 -15.59375 21.554688 -17.234375 21.328125 -18.671875 C 21.097656 -20.109375 20.722656 -21.320312 20.203125 -22.3125 C 19.691406 -23.3125 19.023438 -24.070312 18.203125 -24.59375 C 17.378906 -25.113281 16.375 -25.375 15.1875 -25.375 C 13.976562 -25.375 12.953125 -25.113281 12.109375 -24.59375 C 11.273438 -24.070312 10.597656 -23.3125 10.078125 -22.3125 C 9.554688 -21.320312 9.175781 -20.109375 8.9375 -18.671875 C 8.695312 -17.234375 8.578125 -15.59375 8.578125 -13.75 Z M 8.578125 -13.75 "/></g></g></g></svg>