<svg xmlns="http://www.w3.org/2000/svg" xmlns:xlink="http://www.w3.org/1999/xlink" width="500" zoomAndPan="magnify" viewBox="0 0 375 374.999991" height="500" preserveAspectRatio="xMidYMid meet" version="1.0"><defs><g/><clipPath id="8e2c502b85"><path d="M 99 168 L 162 168 L 162 233 L 99 233 Z M 99 168 " clip-rule="nonzero"/></clipPath><clipPath id="b666fc4139"><path d="M 67.625 140.578125 L 162.753906 135.742188 L 167.777344 234.613281 L 72.652344 239.449219 Z M 67.625 140.578125 " clip-rule="nonzero"/></clipPath><clipPath id="d18bc19694"><path d="M 67.625 140.578125 L 162.753906 135.742188 L 167.777344 234.613281 L 72.652344 239.449219 Z M 67.625 140.578125 " clip-rule="nonzero"/></clipPath><clipPath id="376aa8c88b"><path d="M 98 148 L 166 148 L 166 193 L 98 193 Z M 98 148 " clip-rule="nonzero"/></clipPath><clipPath id="de3d4b61cc"><path d="M 67.625 140.578125 L 162.753906 135.742188 L 167.777344 234.613281 L 72.652344 239.449219 Z M 67.625 140.578125 " clip-rule="nonzero"/></clipPath><clipPath id="9aece28b77"><path d="M 67.625 140.578125 L 162.753906 135.742188 L 167.777344 234.613281 L 72.652344 239.449219 Z M 67.625 140.578125 " clip-rule="nonzero"/></clipPath><clipPath id="ac46ecbaa5"><path d="M 77 168 L 127 168 L 127 237 L 77 237 Z M 77 168 " clip-rule="nonzero"/></clipPath><clipPath id="1ec1e1e502"><path d="M 67.625 140.578125 L 162.753906 135.742188 L 167.777344 234.613281 L 72.652344 239.449219 Z M 67.625 140.578125 " clip-rule="nonzero"/></clipPath><clipPath id="2c8daaf2ae"><path d="M 67.625 140.578125 L 162.753906 135.742188 L 167.777344 234.613281 L 72.652344 239.449219 Z M 67.625 140.578125 " clip-rule="nonzero"/></clipPath><clipPath id="d3e9c63c7b"><path d="M 68 139 L 121 139 L 121 191 L 68 191 Z M 68 139 " clip-rule="nonzero"/></clipPath><clipPath id="5e65a5893f"><path d="M 67.625 140.578125 L 162.753906 135.742188 L 167.777344 234.613281 L 72.652344 239.449219 Z M 67.625 140.578125 " clip-rule="nonzero"/></clipPath><clipPath id="b56e8ab67e"><path d="M 67.625 140.578125 L 162.753906 135.742188 L 167.777344 234.613281 L 72.652344 239.449219 Z M 67.625 140.578125 " clip-rule="nonzero"/></clipPath></defs><rect x="-37.5" width="450" fill="#ffffff" y="-37.499999" height="449.999989" fill-opacity="1"/><rect x="-37.5" width="450" fill="#ffffff" y="-37.499999" height="449.999989" fill-opacity="1"/><rect x="-37.5" width="450" fill="#ffffff" y="-37.499999" height="449.999989" fill-opacity="1"/><g clip-path="url(#8e2c502b85)"><g clip-path="url(#b666fc4139)"><g clip-path="url(#d18bc19694)"><path fill="#a7a5a6" d="M 127.683594 232.722656 C 147.507812 231.714844 162.761719 214.777344 161.75 194.898438 C 161.203125 184.175781 156.039062 174.785156 148.289062 168.570312 C 153.707031 174.527344 157.175781 182.332031 157.617188 191.015625 C 158.628906 210.898438 143.375 227.832031 123.550781 228.839844 C 114.417969 229.304688 105.910156 226.304688 99.289062 220.996094 C 106.28125 228.683594 116.515625 233.289062 127.683594 232.722656 " fill-opacity="1" fill-rule="nonzero"/></g></g></g><g clip-path="url(#376aa8c88b)"><g clip-path="url(#de3d4b61cc)"><g clip-path="url(#9aece28b77)"><path fill="#8b2f29" d="M 101.128906 158.589844 C 100.164062 157.582031 99.433594 156.324219 98.859375 154.671875 C 104.847656 151.082031 111.777344 148.863281 119.230469 148.484375 C 143.5625 147.25 164.292969 166.027344 165.53125 190.425781 C 165.570312 191.203125 165.589844 191.980469 165.589844 192.75 C 163.398438 171.902344 145.296875 156.179688 124.175781 157.253906 C 118.15625 157.558594 112.519531 159.199219 107.53125 161.871094 C 104.535156 161.085938 102.554688 160.082031 101.128906 158.589844 " fill-opacity="1" fill-rule="nonzero"/></g></g></g><g clip-path="url(#ac46ecbaa5)"><g clip-path="url(#1ec1e1e502)"><g clip-path="url(#2c8daaf2ae)"><path fill="#8b2f29" d="M 87.898438 171.304688 C 89.433594 172.914062 90.375 175.144531 91.042969 178.585938 C 87.886719 184.652344 86.25 191.617188 86.625 198.949219 C 87.699219 220.132812 105.132812 236.597656 126.03125 236.667969 C 125.269531 236.746094 124.5 236.808594 123.722656 236.847656 C 99.394531 238.082031 78.664062 219.304688 77.425781 194.90625 C 76.941406 185.378906 79.5 176.402344 84.246094 168.925781 C 85.789062 169.5625 86.960938 170.328125 87.898438 171.304688 " fill-opacity="1" fill-rule="nonzero"/></g></g></g><g clip-path="url(#d3e9c63c7b)"><g clip-path="url(#5e65a5893f)"><g clip-path="url(#b56e8ab67e)"><path fill="#f68712" d="M 68.835938 164.394531 C 90.800781 166.902344 92.410156 168.582031 93.96875 190.699219 C 96.460938 168.671875 98.140625 167.058594 120.191406 165.503906 C 98.226562 162.996094 96.617188 161.3125 95.058594 139.195312 C 92.566406 161.226562 90.886719 162.835938 68.835938 164.394531 " fill-opacity="1" fill-rule="nonzero"/></g></g></g><g fill="#000000" fill-opacity="1"><g transform="translate(97.761771, 208.408804)"><g><path d="M 11.0625 -8.046875 C 11.0625 -6.617188 11.117188 -5.492188 11.234375 -4.671875 C 11.347656 -3.859375 11.566406 -3.222656 11.890625 -2.765625 C 12.210938 -2.304688 12.675781 -2.003906 13.28125 -1.859375 C 13.894531 -1.722656 14.703125 -1.640625 15.703125 -1.609375 L 15.703125 0 L 1.921875 0 L 1.921875 -1.609375 C 2.910156 -1.640625 3.707031 -1.734375 4.3125 -1.890625 C 4.925781 -2.046875 5.398438 -2.335938 5.734375 -2.765625 C 6.078125 -3.191406 6.304688 -3.796875 6.421875 -4.578125 C 6.535156 -5.359375 6.59375 -6.414062 6.59375 -7.75 L 6.59375 -25.015625 C 6.59375 -26.203125 6.539062 -27.1875 6.4375 -27.96875 C 6.34375 -28.75 6.144531 -29.363281 5.84375 -29.8125 C 5.550781 -30.269531 5.117188 -30.59375 4.546875 -30.78125 C 3.984375 -30.96875 3.25 -31.085938 2.34375 -31.140625 L 2.34375 -32.765625 L 15.28125 -32.765625 L 15.28125 -31.140625 C 14.363281 -31.117188 13.628906 -31.003906 13.078125 -30.796875 C 12.523438 -30.597656 12.097656 -30.265625 11.796875 -29.796875 C 11.503906 -29.335938 11.304688 -28.695312 11.203125 -27.875 C 11.109375 -27.050781 11.0625 -26 11.0625 -24.71875 Z M 11.0625 -8.046875 "/></g></g></g><g fill="#000000" fill-opacity="1"><g transform="translate(115.418821, 208.408804)"><g><path d="M 11.0625 -6.765625 C 11.0625 -5.679688 11.117188 -4.800781 11.234375 -4.125 C 11.347656 -3.445312 11.570312 -2.921875 11.90625 -2.546875 C 12.25 -2.179688 12.71875 -1.929688 13.3125 -1.796875 C 13.90625 -1.671875 14.703125 -1.609375 15.703125 -1.609375 L 15.703125 0 L 1.921875 0 L 1.921875 -1.609375 C 2.910156 -1.609375 3.707031 -1.671875 4.3125 -1.796875 C 4.925781 -1.929688 5.398438 -2.175781 5.734375 -2.53125 C 6.078125 -2.882812 6.304688 -3.378906 6.421875 -4.015625 C 6.535156 -4.660156 6.59375 -5.476562 6.59375 -6.46875 L 6.59375 -26.296875 C 6.59375 -27.367188 6.53125 -28.222656 6.40625 -28.859375 C 6.28125 -29.503906 6.050781 -29.992188 5.71875 -30.328125 C 5.394531 -30.671875 4.960938 -30.890625 4.421875 -30.984375 C 3.878906 -31.085938 3.1875 -31.140625 2.34375 -31.140625 L 2.34375 -32.765625 L 15.28125 -32.765625 L 15.28125 -31.140625 C 14.425781 -31.140625 13.726562 -31.082031 13.1875 -30.96875 C 12.644531 -30.851562 12.210938 -30.613281 11.890625 -30.25 C 11.566406 -29.882812 11.347656 -29.367188 11.234375 -28.703125 C 11.117188 -28.035156 11.0625 -27.132812 11.0625 -26 L 11.0625 -15.484375 L 21.703125 -28.296875 C 22.265625 -29.003906 22.546875 -29.554688 22.546875 -29.953125 C 22.546875 -30.742188 21.738281 -31.140625 20.125 -31.140625 L 20.125 -32.765625 L 30.375 -32.765625 L 30.375 -31.1875 C 29.8125 -31.1875 29.316406 -31.148438 28.890625 -31.078125 C 28.460938 -31.003906 28.039062 -30.851562 27.625 -30.625 C 27.21875 -30.40625 26.785156 -30.082031 26.328125 -29.65625 C 25.878906 -29.226562 25.359375 -28.675781 24.765625 -28 L 16.765625 -18.765625 L 29.1875 -3.828125 C 29.894531 -3.003906 30.5625 -2.425781 31.1875 -2.09375 C 31.8125 -1.769531 32.648438 -1.609375 33.703125 -1.609375 L 33.703125 0 L 20.640625 0 L 20.640625 -1.609375 C 21.742188 -1.609375 22.535156 -1.703125 23.015625 -1.890625 C 23.492188 -2.078125 23.734375 -2.367188 23.734375 -2.765625 C 23.734375 -2.992188 23.617188 -3.316406 23.390625 -3.734375 C 23.171875 -4.160156 22.804688 -4.6875 22.296875 -5.3125 L 14 -15.53125 L 11.0625 -12.125 Z M 11.0625 -6.765625 "/></g></g></g><g fill="#000000" fill-opacity="1"><g transform="translate(175.545622, 189.229968)"><g><path d="M 0.703125 0 L 0.703125 -1.328125 L 1.75 -1.328125 C 1.9375 -1.328125 2.101562 -1.34375 2.25 -1.375 C 2.40625 -1.414062 2.539062 -1.492188 2.65625 -1.609375 C 2.769531 -1.722656 2.859375 -1.882812 2.921875 -2.09375 C 2.992188 -2.3125 3.03125 -2.597656 3.03125 -2.953125 L 3.03125 -14.890625 C 3.03125 -15.253906 2.992188 -15.539062 2.921875 -15.75 C 2.859375 -15.957031 2.769531 -16.117188 2.65625 -16.234375 C 2.539062 -16.347656 2.40625 -16.421875 2.25 -16.453125 C 2.101562 -16.492188 1.9375 -16.515625 1.75 -16.515625 L 0.703125 -16.515625 L 0.703125 -17.84375 L 9.328125 -17.84375 L 9.328125 -16.515625 L 8.28125 -16.515625 C 8.101562 -16.515625 7.929688 -16.492188 7.765625 -16.453125 C 7.609375 -16.421875 7.472656 -16.347656 7.359375 -16.234375 C 7.242188 -16.117188 7.15625 -15.957031 7.09375 -15.75 C 7.03125 -15.539062 7 -15.253906 7 -14.890625 L 7 -2.953125 C 7 -2.597656 7.03125 -2.3125 7.09375 -2.09375 C 7.15625 -1.882812 7.242188 -1.722656 7.359375 -1.609375 C 7.472656 -1.492188 7.609375 -1.414062 7.765625 -1.375 C 7.929688 -1.34375 8.101562 -1.328125 8.28125 -1.328125 L 9.328125 -1.328125 L 9.328125 0 Z M 0.703125 0 "/></g></g></g><g fill="#000000" fill-opacity="1"><g transform="translate(185.566034, 189.229968)"><g><path d="M 14.65625 0 L 4.890625 -13.765625 L 4.890625 -2.953125 C 4.890625 -2.597656 4.925781 -2.3125 5 -2.09375 C 5.070312 -1.882812 5.160156 -1.722656 5.265625 -1.609375 C 5.378906 -1.492188 5.515625 -1.414062 5.671875 -1.375 C 5.835938 -1.34375 6.003906 -1.328125 6.171875 -1.328125 L 7.234375 -1.328125 L 7.234375 0 L 0.703125 0 L 0.703125 -1.328125 L 1.75 -1.328125 C 1.925781 -1.328125 2.09375 -1.34375 2.25 -1.375 C 2.40625 -1.414062 2.539062 -1.492188 2.65625 -1.609375 C 2.769531 -1.722656 2.859375 -1.882812 2.921875 -2.09375 C 2.992188 -2.3125 3.03125 -2.597656 3.03125 -2.953125 L 3.03125 -15 C 3.03125 -15.332031 2.992188 -15.597656 2.921875 -15.796875 C 2.847656 -15.992188 2.753906 -16.144531 2.640625 -16.25 C 2.523438 -16.363281 2.390625 -16.4375 2.234375 -16.46875 C 2.078125 -16.507812 1.914062 -16.53125 1.75 -16.53125 L 0.703125 -16.53125 L 0.703125 -17.84375 L 6.25 -17.84375 L 15.078125 -5.375 L 15.078125 -15 C 15.078125 -15.332031 15.039062 -15.597656 14.96875 -15.796875 C 14.90625 -15.992188 14.8125 -16.144531 14.6875 -16.25 C 14.570312 -16.363281 14.4375 -16.4375 14.28125 -16.46875 C 14.125 -16.507812 13.960938 -16.53125 13.796875 -16.53125 L 12.75 -16.53125 L 12.75 -17.84375 L 19.28125 -17.84375 L 19.28125 -16.53125 L 18.21875 -16.53125 C 18.050781 -16.53125 17.890625 -16.507812 17.734375 -16.46875 C 17.578125 -16.4375 17.441406 -16.363281 17.328125 -16.25 C 17.210938 -16.132812 17.117188 -15.96875 17.046875 -15.75 C 16.984375 -15.539062 16.953125 -15.257812 16.953125 -14.90625 L 16.953125 0 Z M 14.65625 0 "/></g></g></g><g fill="#000000" fill-opacity="1"><g transform="translate(205.265102, 189.229968)"><g><path d="M 10.140625 -2.953125 C 10.140625 -2.597656 10.171875 -2.3125 10.234375 -2.09375 C 10.304688 -1.882812 10.398438 -1.722656 10.515625 -1.609375 C 10.628906 -1.492188 10.765625 -1.414062 10.921875 -1.375 C 11.078125 -1.34375 11.242188 -1.328125 11.421875 -1.328125 L 12.46875 -1.328125 L 12.46875 0 L 3.84375 0 L 3.84375 -1.328125 L 4.890625 -1.328125 C 5.078125 -1.328125 5.25 -1.34375 5.40625 -1.375 C 5.5625 -1.414062 5.695312 -1.492188 5.8125 -1.609375 C 5.925781 -1.722656 6.015625 -1.882812 6.078125 -2.09375 C 6.140625 -2.3125 6.171875 -2.597656 6.171875 -2.953125 L 6.171875 -16.328125 L 4.171875 -16.328125 C 3.796875 -16.328125 3.484375 -16.285156 3.234375 -16.203125 C 2.984375 -16.117188 2.773438 -16 2.609375 -15.84375 C 2.453125 -15.695312 2.335938 -15.515625 2.265625 -15.296875 C 2.191406 -15.078125 2.132812 -14.828125 2.09375 -14.546875 L 1.921875 -13 L 0.25 -13 L 0.375 -17.84375 L 15.953125 -17.84375 L 16.078125 -13 L 14.40625 -13 L 14.21875 -14.546875 C 14.1875 -14.828125 14.128906 -15.078125 14.046875 -15.296875 C 13.972656 -15.515625 13.859375 -15.695312 13.703125 -15.84375 C 13.546875 -16 13.335938 -16.117188 13.078125 -16.203125 C 12.828125 -16.285156 12.515625 -16.328125 12.140625 -16.328125 L 10.140625 -16.328125 Z M 10.140625 -2.953125 "/></g></g></g><g fill="#000000" fill-opacity="1"><g transform="translate(221.583358, 189.229968)"><g><path d="M 7 -1.53125 L 12 -1.53125 C 12.25 -1.53125 12.460938 -1.578125 12.640625 -1.671875 C 12.828125 -1.765625 12.984375 -1.894531 13.109375 -2.0625 C 13.242188 -2.226562 13.347656 -2.425781 13.421875 -2.65625 C 13.492188 -2.894531 13.550781 -3.15625 13.59375 -3.4375 L 13.796875 -4.609375 L 15.53125 -4.609375 L 15.34375 0 L 0.703125 0 L 0.703125 -1.328125 L 1.75 -1.328125 C 1.925781 -1.328125 2.09375 -1.34375 2.25 -1.375 C 2.40625 -1.40625 2.539062 -1.472656 2.65625 -1.578125 C 2.769531 -1.679688 2.859375 -1.832031 2.921875 -2.03125 C 2.992188 -2.226562 3.03125 -2.488281 3.03125 -2.8125 L 3.03125 -14.90625 C 3.03125 -15.257812 2.992188 -15.539062 2.921875 -15.75 C 2.859375 -15.96875 2.769531 -16.132812 2.65625 -16.25 C 2.539062 -16.363281 2.40625 -16.4375 2.25 -16.46875 C 2.101562 -16.507812 1.9375 -16.53125 1.75 -16.53125 L 0.703125 -16.53125 L 0.703125 -17.84375 L 14.578125 -17.84375 L 14.671875 -13.25 L 12.921875 -13.25 L 12.8125 -14.421875 C 12.738281 -15.035156 12.578125 -15.503906 12.328125 -15.828125 C 12.085938 -16.160156 11.710938 -16.328125 11.203125 -16.328125 L 7 -16.328125 L 7 -10.078125 L 12.921875 -10.078125 L 12.921875 -8.5625 L 7 -8.5625 Z M 7 -1.53125 "/></g></g></g><g fill="#000000" fill-opacity="1"><g transform="translate(237.901613, 189.229968)"><g><path d="M 0.703125 -1.328125 L 1.75 -1.328125 C 1.914062 -1.328125 2.078125 -1.34375 2.234375 -1.375 C 2.390625 -1.40625 2.523438 -1.472656 2.640625 -1.578125 C 2.753906 -1.679688 2.847656 -1.832031 2.921875 -2.03125 C 2.992188 -2.226562 3.03125 -2.488281 3.03125 -2.8125 L 3.03125 -15 C 3.03125 -15.332031 2.992188 -15.597656 2.921875 -15.796875 C 2.847656 -15.992188 2.753906 -16.144531 2.640625 -16.25 C 2.523438 -16.363281 2.390625 -16.4375 2.234375 -16.46875 C 2.078125 -16.507812 1.914062 -16.53125 1.75 -16.53125 L 0.703125 -16.53125 L 0.703125 -17.84375 L 8.75 -17.84375 C 11.113281 -17.84375 12.84375 -17.445312 13.9375 -16.65625 C 15.039062 -15.875 15.59375 -14.726562 15.59375 -13.21875 C 15.59375 -12.5625 15.492188 -11.972656 15.296875 -11.453125 C 15.109375 -10.941406 14.851562 -10.492188 14.53125 -10.109375 C 14.207031 -9.734375 13.84375 -9.410156 13.4375 -9.140625 C 13.03125 -8.878906 12.613281 -8.664062 12.1875 -8.5 L 15.171875 -3.375 C 15.378906 -3.007812 15.582031 -2.695312 15.78125 -2.4375 C 15.988281 -2.1875 16.191406 -1.976562 16.390625 -1.8125 C 16.585938 -1.644531 16.789062 -1.519531 17 -1.4375 C 17.21875 -1.363281 17.441406 -1.328125 17.671875 -1.328125 L 17.78125 -1.328125 L 17.78125 0 L 16.953125 0 C 16.203125 0 15.546875 -0.0234375 14.984375 -0.078125 C 14.429688 -0.140625 13.945312 -0.253906 13.53125 -0.421875 C 13.113281 -0.585938 12.75 -0.816406 12.4375 -1.109375 C 12.132812 -1.398438 11.851562 -1.78125 11.59375 -2.25 L 8.625 -7.75 L 6.96875 -7.75 L 6.96875 -2.8125 C 6.96875 -2.488281 7 -2.226562 7.0625 -2.03125 C 7.132812 -1.832031 7.226562 -1.679688 7.34375 -1.578125 C 7.46875 -1.472656 7.609375 -1.40625 7.765625 -1.375 C 7.921875 -1.34375 8.082031 -1.328125 8.25 -1.328125 L 9.328125 -1.328125 L 9.328125 0 L 0.703125 0 Z M 6.96875 -9.203125 L 8.375 -9.203125 C 8.945312 -9.203125 9.425781 -9.28125 9.8125 -9.4375 C 10.207031 -9.59375 10.519531 -9.820312 10.75 -10.125 C 10.976562 -10.425781 11.144531 -10.804688 11.25 -11.265625 C 11.351562 -11.734375 11.40625 -12.269531 11.40625 -12.875 C 11.40625 -13.507812 11.347656 -14.046875 11.234375 -14.484375 C 11.117188 -14.929688 10.9375 -15.289062 10.6875 -15.5625 C 10.445312 -15.84375 10.128906 -16.046875 9.734375 -16.171875 C 9.347656 -16.304688 8.878906 -16.375 8.328125 -16.375 L 6.96875 -16.375 Z M 6.96875 -9.203125 "/></g></g></g><g fill="#000000" fill-opacity="1"><g transform="translate(255.574631, 189.229968)"><g><path d="M 0.703125 0 L 0.703125 -1.328125 L 1.75 -1.328125 C 1.9375 -1.328125 2.101562 -1.34375 2.25 -1.375 C 2.40625 -1.414062 2.539062 -1.492188 2.65625 -1.609375 C 2.769531 -1.722656 2.859375 -1.882812 2.921875 -2.09375 C 2.992188 -2.3125 3.03125 -2.597656 3.03125 -2.953125 L 3.03125 -14.890625 C 3.03125 -15.253906 2.992188 -15.539062 2.921875 -15.75 C 2.859375 -15.957031 2.769531 -16.117188 2.65625 -16.234375 C 2.539062 -16.347656 2.40625 -16.421875 2.25 -16.453125 C 2.101562 -16.492188 1.9375 -16.515625 1.75 -16.515625 L 0.703125 -16.515625 L 0.703125 -17.84375 L 9.328125 -17.84375 L 9.328125 -16.515625 L 8.28125 -16.515625 C 8.101562 -16.515625 7.929688 -16.492188 7.765625 -16.453125 C 7.609375 -16.421875 7.472656 -16.347656 7.359375 -16.234375 C 7.242188 -16.117188 7.15625 -15.957031 7.09375 -15.75 C 7.03125 -15.539062 7 -15.253906 7 -14.890625 L 7 -2.953125 C 7 -2.597656 7.03125 -2.3125 7.09375 -2.09375 C 7.15625 -1.882812 7.242188 -1.722656 7.359375 -1.609375 C 7.472656 -1.492188 7.609375 -1.414062 7.765625 -1.375 C 7.929688 -1.34375 8.101562 -1.328125 8.28125 -1.328125 L 9.328125 -1.328125 L 9.328125 0 Z M 0.703125 0 "/></g></g></g><g fill="#000000" fill-opacity="1"><g transform="translate(265.595043, 189.229968)"><g><path d="M 18.296875 -8.953125 C 18.296875 -7.578125 18.109375 -6.320312 17.734375 -5.1875 C 17.367188 -4.050781 16.828125 -3.082031 16.109375 -2.28125 C 15.390625 -1.476562 14.503906 -0.851562 13.453125 -0.40625 C 12.410156 0.03125 11.207031 0.25 9.84375 0.25 C 8.425781 0.25 7.1875 0.03125 6.125 -0.40625 C 5.0625 -0.851562 4.175781 -1.476562 3.46875 -2.28125 C 2.769531 -3.082031 2.242188 -4.050781 1.890625 -5.1875 C 1.546875 -6.320312 1.375 -7.582031 1.375 -8.96875 C 1.375 -10.351562 1.546875 -11.609375 1.890625 -12.734375 C 2.242188 -13.859375 2.773438 -14.820312 3.484375 -15.625 C 4.191406 -16.425781 5.078125 -17.039062 6.140625 -17.46875 C 7.203125 -17.90625 8.445312 -18.125 9.875 -18.125 C 11.226562 -18.125 12.425781 -17.90625 13.46875 -17.46875 C 14.519531 -17.039062 15.398438 -16.425781 16.109375 -15.625 C 16.828125 -14.820312 17.367188 -13.851562 17.734375 -12.71875 C 18.109375 -11.59375 18.296875 -10.335938 18.296875 -8.953125 Z M 5.578125 -8.953125 C 5.578125 -7.753906 5.65625 -6.6875 5.8125 -5.75 C 5.96875 -4.8125 6.210938 -4.019531 6.546875 -3.375 C 6.890625 -2.726562 7.332031 -2.234375 7.875 -1.890625 C 8.414062 -1.546875 9.070312 -1.375 9.84375 -1.375 C 10.625 -1.375 11.285156 -1.546875 11.828125 -1.890625 C 12.367188 -2.234375 12.804688 -2.726562 13.140625 -3.375 C 13.472656 -4.019531 13.710938 -4.8125 13.859375 -5.75 C 14.015625 -6.6875 14.09375 -7.753906 14.09375 -8.953125 C 14.09375 -10.148438 14.015625 -11.210938 13.859375 -12.140625 C 13.710938 -13.078125 13.472656 -13.867188 13.140625 -14.515625 C 12.804688 -15.160156 12.367188 -15.648438 11.828125 -15.984375 C 11.296875 -16.328125 10.644531 -16.5 9.875 -16.5 C 9.09375 -16.5 8.425781 -16.328125 7.875 -15.984375 C 7.332031 -15.648438 6.890625 -15.160156 6.546875 -14.515625 C 6.210938 -13.867188 5.96875 -13.078125 5.8125 -12.140625 C 5.65625 -11.210938 5.578125 -10.148438 5.578125 -8.953125 Z M 5.578125 -8.953125 "/></g></g></g><g fill="#000000" fill-opacity="1"><g transform="translate(285.269702, 189.229968)"><g><path d="M 0.703125 -1.328125 L 1.75 -1.328125 C 1.914062 -1.328125 2.078125 -1.34375 2.234375 -1.375 C 2.390625 -1.40625 2.523438 -1.472656 2.640625 -1.578125 C 2.753906 -1.679688 2.847656 -1.832031 2.921875 -2.03125 C 2.992188 -2.226562 3.03125 -2.488281 3.03125 -2.8125 L 3.03125 -15 C 3.03125 -15.332031 2.992188 -15.597656 2.921875 -15.796875 C 2.847656 -15.992188 2.753906 -16.144531 2.640625 -16.25 C 2.523438 -16.363281 2.390625 -16.4375 2.234375 -16.46875 C 2.078125 -16.507812 1.914062 -16.53125 1.75 -16.53125 L 0.703125 -16.53125 L 0.703125 -17.84375 L 8.75 -17.84375 C 11.113281 -17.84375 12.84375 -17.445312 13.9375 -16.65625 C 15.039062 -15.875 15.59375 -14.726562 15.59375 -13.21875 C 15.59375 -12.5625 15.492188 -11.972656 15.296875 -11.453125 C 15.109375 -10.941406 14.851562 -10.492188 14.53125 -10.109375 C 14.207031 -9.734375 13.84375 -9.410156 13.4375 -9.140625 C 13.03125 -8.878906 12.613281 -8.664062 12.1875 -8.5 L 15.171875 -3.375 C 15.378906 -3.007812 15.582031 -2.695312 15.78125 -2.4375 C 15.988281 -2.1875 16.191406 -1.976562 16.390625 -1.8125 C 16.585938 -1.644531 16.789062 -1.519531 17 -1.4375 C 17.21875 -1.363281 17.441406 -1.328125 17.671875 -1.328125 L 17.78125 -1.328125 L 17.78125 0 L 16.953125 0 C 16.203125 0 15.546875 -0.0234375 14.984375 -0.078125 C 14.429688 -0.140625 13.945312 -0.253906 13.53125 -0.421875 C 13.113281 -0.585938 12.75 -0.816406 12.4375 -1.109375 C 12.132812 -1.398438 11.851562 -1.78125 11.59375 -2.25 L 8.625 -7.75 L 6.96875 -7.75 L 6.96875 -2.8125 C 6.96875 -2.488281 7 -2.226562 7.0625 -2.03125 C 7.132812 -1.832031 7.226562 -1.679688 7.34375 -1.578125 C 7.46875 -1.472656 7.609375 -1.40625 7.765625 -1.375 C 7.921875 -1.34375 8.082031 -1.328125 8.25 -1.328125 L 9.328125 -1.328125 L 9.328125 0 L 0.703125 0 Z M 6.96875 -9.203125 L 8.375 -9.203125 C 8.945312 -9.203125 9.425781 -9.28125 9.8125 -9.4375 C 10.207031 -9.59375 10.519531 -9.820312 10.75 -10.125 C 10.976562 -10.425781 11.144531 -10.804688 11.25 -11.265625 C 11.351562 -11.734375 11.40625 -12.269531 11.40625 -12.875 C 11.40625 -13.507812 11.347656 -14.046875 11.234375 -14.484375 C 11.117188 -14.929688 10.9375 -15.289062 10.6875 -15.5625 C 10.445312 -15.84375 10.128906 -16.046875 9.734375 -16.171875 C 9.347656 -16.304688 8.878906 -16.375 8.328125 -16.375 L 6.96875 -16.375 Z M 6.96875 -9.203125 "/></g></g></g><g fill="#000000" fill-opacity="1"><g transform="translate(302.940148, 189.229968)"><g/></g></g><g fill="#8b2f29" fill-opacity="1"><g transform="translate(175.545622, 218.729971)"><g><path d="M 10.859375 -13.3125 C 11.117188 -13.59375 11.335938 -13.847656 11.515625 -14.078125 C 11.703125 -14.304688 11.851562 -14.519531 11.96875 -14.71875 C 12.082031 -14.925781 12.160156 -15.117188 12.203125 -15.296875 C 12.253906 -15.472656 12.28125 -15.648438 12.28125 -15.828125 C 12.28125 -16.097656 12.171875 -16.285156 11.953125 -16.390625 C 11.742188 -16.492188 11.382812 -16.546875 10.875 -16.546875 L 10.875 -17.84375 L 17.65625 -17.84375 L 17.65625 -16.546875 C 17.3125 -16.546875 16.984375 -16.492188 16.671875 -16.390625 C 16.367188 -16.285156 16.070312 -16.132812 15.78125 -15.9375 C 15.488281 -15.75 15.195312 -15.519531 14.90625 -15.25 C 14.625 -14.976562 14.335938 -14.679688 14.046875 -14.359375 L 10.75 -10.734375 L 15.40625 -3.34375 C 15.644531 -2.957031 15.875 -2.632812 16.09375 -2.375 C 16.320312 -2.113281 16.550781 -1.90625 16.78125 -1.75 C 17.007812 -1.601562 17.238281 -1.492188 17.46875 -1.421875 C 17.707031 -1.359375 17.96875 -1.328125 18.25 -1.328125 L 18.34375 -1.328125 L 18.34375 0 L 17 0 C 16.363281 0 15.804688 -0.0195312 15.328125 -0.0625 C 14.847656 -0.101562 14.425781 -0.160156 14.0625 -0.234375 C 13.707031 -0.316406 13.398438 -0.421875 13.140625 -0.546875 C 12.878906 -0.679688 12.648438 -0.832031 12.453125 -1 C 12.253906 -1.164062 12.078125 -1.359375 11.921875 -1.578125 C 11.765625 -1.796875 11.609375 -2.035156 11.453125 -2.296875 L 8.078125 -8.046875 L 6.96875 -7.171875 L 6.96875 -2.953125 C 6.96875 -2.597656 7 -2.3125 7.0625 -2.09375 C 7.132812 -1.882812 7.226562 -1.722656 7.34375 -1.609375 C 7.457031 -1.492188 7.597656 -1.414062 7.765625 -1.375 C 7.929688 -1.34375 8.101562 -1.328125 8.28125 -1.328125 L 9.328125 -1.328125 L 9.328125 0 L 0.703125 0 L 0.703125 -1.328125 L 1.75 -1.328125 C 1.925781 -1.328125 2.09375 -1.34375 2.25 -1.375 C 2.40625 -1.40625 2.539062 -1.472656 2.65625 -1.578125 C 2.769531 -1.679688 2.859375 -1.832031 2.921875 -2.03125 C 2.992188 -2.226562 3.03125 -2.488281 3.03125 -2.8125 L 3.03125 -15 C 3.03125 -15.332031 2.992188 -15.597656 2.921875 -15.796875 C 2.859375 -15.992188 2.769531 -16.144531 2.65625 -16.25 C 2.539062 -16.363281 2.40625 -16.4375 2.25 -16.46875 C 2.09375 -16.507812 1.925781 -16.53125 1.75 -16.53125 L 0.703125 -16.53125 L 0.703125 -17.84375 L 9.328125 -17.84375 L 9.328125 -16.53125 L 8.28125 -16.53125 C 8.101562 -16.53125 7.929688 -16.507812 7.765625 -16.46875 C 7.597656 -16.4375 7.457031 -16.363281 7.34375 -16.25 C 7.226562 -16.132812 7.132812 -15.96875 7.0625 -15.75 C 7 -15.539062 6.96875 -15.257812 6.96875 -14.90625 L 6.96875 -9.0625 Z M 10.859375 -13.3125 "/></g></g></g><g fill="#8b2f29" fill-opacity="1"><g transform="translate(193.889928, 218.729971)"><g><path d="M 5.4375 -5.875 L 4.71875 -3.71875 C 4.65625 -3.519531 4.585938 -3.28125 4.515625 -3 C 4.453125 -2.726562 4.421875 -2.492188 4.421875 -2.296875 C 4.421875 -2.128906 4.453125 -1.984375 4.515625 -1.859375 C 4.578125 -1.742188 4.660156 -1.644531 4.765625 -1.5625 C 4.878906 -1.488281 5 -1.429688 5.125 -1.390625 C 5.257812 -1.347656 5.398438 -1.328125 5.546875 -1.328125 L 6.609375 -1.328125 L 6.609375 0 L 0.09375 0 L 0.09375 -1.328125 L 0.40625 -1.328125 C 0.625 -1.328125 0.820312 -1.351562 1 -1.40625 C 1.1875 -1.457031 1.359375 -1.546875 1.515625 -1.671875 C 1.679688 -1.804688 1.832031 -1.992188 1.96875 -2.234375 C 2.113281 -2.472656 2.257812 -2.78125 2.40625 -3.15625 L 7.828125 -17.84375 L 11.25 -17.84375 L 16.484375 -3.125 C 16.597656 -2.769531 16.722656 -2.476562 16.859375 -2.25 C 16.992188 -2.019531 17.140625 -1.835938 17.296875 -1.703125 C 17.460938 -1.566406 17.632812 -1.46875 17.8125 -1.40625 C 17.988281 -1.351562 18.175781 -1.328125 18.375 -1.328125 L 18.828125 -1.328125 L 18.828125 0 L 10.578125 0 L 10.578125 -1.328125 L 11.546875 -1.328125 C 11.671875 -1.328125 11.796875 -1.34375 11.921875 -1.375 C 12.054688 -1.414062 12.171875 -1.472656 12.265625 -1.546875 C 12.367188 -1.628906 12.453125 -1.726562 12.515625 -1.84375 C 12.585938 -1.96875 12.625 -2.117188 12.625 -2.296875 C 12.625 -2.492188 12.597656 -2.6875 12.546875 -2.875 C 12.492188 -3.0625 12.445312 -3.226562 12.40625 -3.375 L 11.53125 -5.875 Z M 9.703125 -11.5 C 9.617188 -11.78125 9.53125 -12.078125 9.4375 -12.390625 C 9.34375 -12.703125 9.25 -13.019531 9.15625 -13.34375 C 9.0625 -13.675781 8.96875 -14.003906 8.875 -14.328125 C 8.789062 -14.648438 8.71875 -14.957031 8.65625 -15.25 C 8.582031 -15 8.492188 -14.722656 8.390625 -14.421875 C 8.296875 -14.117188 8.191406 -13.804688 8.078125 -13.484375 C 7.972656 -13.171875 7.863281 -12.851562 7.75 -12.53125 C 7.644531 -12.21875 7.546875 -11.914062 7.453125 -11.625 L 5.96875 -7.390625 L 11.015625 -7.390625 Z M 9.703125 -11.5 "/></g></g></g><g fill="#8b2f29" fill-opacity="1"><g transform="translate(212.710228, 218.729971)"><g><path d="M 0.703125 -1.328125 L 1.75 -1.328125 C 1.914062 -1.328125 2.078125 -1.34375 2.234375 -1.375 C 2.390625 -1.40625 2.523438 -1.472656 2.640625 -1.578125 C 2.753906 -1.679688 2.847656 -1.832031 2.921875 -2.03125 C 2.992188 -2.226562 3.03125 -2.488281 3.03125 -2.8125 L 3.03125 -15 C 3.03125 -15.332031 2.992188 -15.597656 2.921875 -15.796875 C 2.847656 -15.992188 2.753906 -16.144531 2.640625 -16.25 C 2.523438 -16.363281 2.390625 -16.4375 2.234375 -16.46875 C 2.078125 -16.507812 1.914062 -16.53125 1.75 -16.53125 L 0.703125 -16.53125 L 0.703125 -17.84375 L 8.75 -17.84375 C 11.113281 -17.84375 12.84375 -17.445312 13.9375 -16.65625 C 15.039062 -15.875 15.59375 -14.726562 15.59375 -13.21875 C 15.59375 -12.5625 15.492188 -11.972656 15.296875 -11.453125 C 15.109375 -10.941406 14.851562 -10.492188 14.53125 -10.109375 C 14.207031 -9.734375 13.84375 -9.410156 13.4375 -9.140625 C 13.03125 -8.878906 12.613281 -8.664062 12.1875 -8.5 L 15.171875 -3.375 C 15.378906 -3.007812 15.582031 -2.695312 15.78125 -2.4375 C 15.988281 -2.1875 16.191406 -1.976562 16.390625 -1.8125 C 16.585938 -1.644531 16.789062 -1.519531 17 -1.4375 C 17.21875 -1.363281 17.441406 -1.328125 17.671875 -1.328125 L 17.78125 -1.328125 L 17.78125 0 L 16.953125 0 C 16.203125 0 15.546875 -0.0234375 14.984375 -0.078125 C 14.429688 -0.140625 13.945312 -0.253906 13.53125 -0.421875 C 13.113281 -0.585938 12.75 -0.816406 12.4375 -1.109375 C 12.132812 -1.398438 11.851562 -1.78125 11.59375 -2.25 L 8.625 -7.75 L 6.96875 -7.75 L 6.96875 -2.8125 C 6.96875 -2.488281 7 -2.226562 7.0625 -2.03125 C 7.132812 -1.832031 7.226562 -1.679688 7.34375 -1.578125 C 7.46875 -1.472656 7.609375 -1.40625 7.765625 -1.375 C 7.921875 -1.34375 8.082031 -1.328125 8.25 -1.328125 L 9.328125 -1.328125 L 9.328125 0 L 0.703125 0 Z M 6.96875 -9.203125 L 8.375 -9.203125 C 8.945312 -9.203125 9.425781 -9.28125 9.8125 -9.4375 C 10.207031 -9.59375 10.519531 -9.820312 10.75 -10.125 C 10.976562 -10.425781 11.144531 -10.804688 11.25 -11.265625 C 11.351562 -11.734375 11.40625 -12.269531 11.40625 -12.875 C 11.40625 -13.507812 11.347656 -14.046875 11.234375 -14.484375 C 11.117188 -14.929688 10.9375 -15.289062 10.6875 -15.5625 C 10.445312 -15.84375 10.128906 -16.046875 9.734375 -16.171875 C 9.347656 -16.304688 8.878906 -16.375 8.328125 -16.375 L 6.96875 -16.375 Z M 6.96875 -9.203125 "/></g></g></g><g fill="#8b2f29" fill-opacity="1"><g transform="translate(230.383246, 218.729971)"><g><path d="M 15.09375 -17.671875 L 18.5625 -8.125 C 18.707031 -7.738281 18.84375 -7.34375 18.96875 -6.9375 C 19.09375 -6.53125 19.207031 -6.144531 19.3125 -5.78125 C 19.414062 -5.414062 19.507812 -5.078125 19.59375 -4.765625 C 19.675781 -4.460938 19.738281 -4.203125 19.78125 -3.984375 C 19.84375 -4.285156 19.910156 -4.617188 19.984375 -4.984375 C 20.054688 -5.347656 20.132812 -5.726562 20.21875 -6.125 C 20.300781 -6.53125 20.390625 -6.945312 20.484375 -7.375 C 20.578125 -7.800781 20.675781 -8.210938 20.78125 -8.609375 L 22.09375 -14 C 22.113281 -14.09375 22.140625 -14.203125 22.171875 -14.328125 C 22.203125 -14.460938 22.226562 -14.59375 22.25 -14.71875 C 22.28125 -14.851562 22.300781 -14.972656 22.3125 -15.078125 C 22.320312 -15.191406 22.328125 -15.28125 22.328125 -15.34375 C 22.328125 -15.769531 22.195312 -16.070312 21.9375 -16.25 C 21.6875 -16.4375 21.285156 -16.53125 20.734375 -16.53125 L 20.15625 -16.53125 L 20.15625 -17.84375 L 26.671875 -17.84375 L 26.671875 -16.53125 L 26.203125 -16.53125 C 25.953125 -16.53125 25.734375 -16.503906 25.546875 -16.453125 C 25.359375 -16.398438 25.191406 -16.300781 25.046875 -16.15625 C 24.898438 -16.019531 24.765625 -15.828125 24.640625 -15.578125 C 24.523438 -15.328125 24.410156 -14.992188 24.296875 -14.578125 L 20.421875 0 L 17.578125 0 L 13.375 -11.734375 L 9.78125 0 L 6.671875 0 L 2.09375 -15.203125 C 2.019531 -15.460938 1.929688 -15.675781 1.828125 -15.84375 C 1.722656 -16.007812 1.597656 -16.144531 1.453125 -16.25 C 1.316406 -16.351562 1.15625 -16.425781 0.96875 -16.46875 C 0.789062 -16.507812 0.578125 -16.53125 0.328125 -16.53125 L 0 -16.53125 L 0 -17.84375 L 8.34375 -17.84375 L 8.34375 -16.53125 L 7.78125 -16.53125 C 7.269531 -16.53125 6.890625 -16.429688 6.640625 -16.234375 C 6.398438 -16.035156 6.28125 -15.726562 6.28125 -15.3125 C 6.28125 -15.175781 6.304688 -14.972656 6.359375 -14.703125 C 6.410156 -14.441406 6.46875 -14.203125 6.53125 -13.984375 L 8.203125 -8.203125 C 8.296875 -7.890625 8.390625 -7.546875 8.484375 -7.171875 C 8.585938 -6.796875 8.679688 -6.421875 8.765625 -6.046875 C 8.859375 -5.671875 8.941406 -5.304688 9.015625 -4.953125 C 9.085938 -4.609375 9.144531 -4.300781 9.1875 -4.03125 C 9.289062 -4.5625 9.410156 -5.0625 9.546875 -5.53125 C 9.679688 -6 9.820312 -6.476562 9.96875 -6.96875 L 13.265625 -17.671875 Z M 15.09375 -17.671875 "/></g></g></g><g fill="#8b2f29" fill-opacity="1"><g transform="translate(257.051446, 218.729971)"><g><path d="M 5.4375 -5.875 L 4.71875 -3.71875 C 4.65625 -3.519531 4.585938 -3.28125 4.515625 -3 C 4.453125 -2.726562 4.421875 -2.492188 4.421875 -2.296875 C 4.421875 -2.128906 4.453125 -1.984375 4.515625 -1.859375 C 4.578125 -1.742188 4.660156 -1.644531 4.765625 -1.5625 C 4.878906 -1.488281 5 -1.429688 5.125 -1.390625 C 5.257812 -1.347656 5.398438 -1.328125 5.546875 -1.328125 L 6.609375 -1.328125 L 6.609375 0 L 0.09375 0 L 0.09375 -1.328125 L 0.40625 -1.328125 C 0.625 -1.328125 0.820312 -1.351562 1 -1.40625 C 1.1875 -1.457031 1.359375 -1.546875 1.515625 -1.671875 C 1.679688 -1.804688 1.832031 -1.992188 1.96875 -2.234375 C 2.113281 -2.472656 2.257812 -2.78125 2.40625 -3.15625 L 7.828125 -17.84375 L 11.25 -17.84375 L 16.484375 -3.125 C 16.597656 -2.769531 16.722656 -2.476562 16.859375 -2.25 C 16.992188 -2.019531 17.140625 -1.835938 17.296875 -1.703125 C 17.460938 -1.566406 17.632812 -1.46875 17.8125 -1.40625 C 17.988281 -1.351562 18.175781 -1.328125 18.375 -1.328125 L 18.828125 -1.328125 L 18.828125 0 L 10.578125 0 L 10.578125 -1.328125 L 11.546875 -1.328125 C 11.671875 -1.328125 11.796875 -1.34375 11.921875 -1.375 C 12.054688 -1.414062 12.171875 -1.472656 12.265625 -1.546875 C 12.367188 -1.628906 12.453125 -1.726562 12.515625 -1.84375 C 12.585938 -1.96875 12.625 -2.117188 12.625 -2.296875 C 12.625 -2.492188 12.597656 -2.6875 12.546875 -2.875 C 12.492188 -3.0625 12.445312 -3.226562 12.40625 -3.375 L 11.53125 -5.875 Z M 9.703125 -11.5 C 9.617188 -11.78125 9.53125 -12.078125 9.4375 -12.390625 C 9.34375 -12.703125 9.25 -13.019531 9.15625 -13.34375 C 9.0625 -13.675781 8.96875 -14.003906 8.875 -14.328125 C 8.789062 -14.648438 8.71875 -14.957031 8.65625 -15.25 C 8.582031 -15 8.492188 -14.722656 8.390625 -14.421875 C 8.296875 -14.117188 8.191406 -13.804688 8.078125 -13.484375 C 7.972656 -13.171875 7.863281 -12.851562 7.75 -12.53125 C 7.644531 -12.21875 7.546875 -11.914062 7.453125 -11.625 L 5.96875 -7.390625 L 11.015625 -7.390625 Z M 9.703125 -11.5 "/></g></g></g><g fill="#8b2f29" fill-opacity="1"><g transform="translate(275.871746, 218.729971)"><g><path d="M 0.703125 0 L 0.703125 -1.328125 L 1.75 -1.328125 C 1.9375 -1.328125 2.101562 -1.34375 2.25 -1.375 C 2.40625 -1.414062 2.539062 -1.492188 2.65625 -1.609375 C 2.769531 -1.722656 2.859375 -1.882812 2.921875 -2.09375 C 2.992188 -2.3125 3.03125 -2.597656 3.03125 -2.953125 L 3.03125 -14.90625 C 3.03125 -15.257812 2.992188 -15.539062 2.921875 -15.75 C 2.859375 -15.96875 2.769531 -16.132812 2.65625 -16.25 C 2.539062 -16.363281 2.40625 -16.4375 2.25 -16.46875 C 2.101562 -16.507812 1.9375 -16.53125 1.75 -16.53125 L 0.703125 -16.53125 L 0.703125 -17.84375 L 9.328125 -17.84375 L 9.328125 -16.53125 L 8.28125 -16.53125 C 8.101562 -16.53125 7.9375 -16.507812 7.78125 -16.46875 C 7.625 -16.4375 7.488281 -16.363281 7.375 -16.25 C 7.257812 -16.144531 7.164062 -15.992188 7.09375 -15.796875 C 7.03125 -15.597656 7 -15.332031 7 -15 L 7 -1.53125 L 11.640625 -1.53125 C 12.234375 -1.53125 12.691406 -1.710938 13.015625 -2.078125 C 13.335938 -2.453125 13.570312 -2.992188 13.71875 -3.703125 L 14.125 -5.578125 L 15.53125 -5.578125 L 15.34375 0 Z M 0.703125 0 "/></g></g></g><g fill="#8b2f29" fill-opacity="1"><g transform="translate(292.214411, 218.729971)"><g><path d="M 18.296875 -8.953125 C 18.296875 -7.578125 18.109375 -6.320312 17.734375 -5.1875 C 17.367188 -4.050781 16.828125 -3.082031 16.109375 -2.28125 C 15.390625 -1.476562 14.503906 -0.851562 13.453125 -0.40625 C 12.410156 0.03125 11.207031 0.25 9.84375 0.25 C 8.425781 0.25 7.1875 0.03125 6.125 -0.40625 C 5.0625 -0.851562 4.175781 -1.476562 3.46875 -2.28125 C 2.769531 -3.082031 2.242188 -4.050781 1.890625 -5.1875 C 1.546875 -6.320312 1.375 -7.582031 1.375 -8.96875 C 1.375 -10.351562 1.546875 -11.609375 1.890625 -12.734375 C 2.242188 -13.859375 2.773438 -14.820312 3.484375 -15.625 C 4.191406 -16.425781 5.078125 -17.039062 6.140625 -17.46875 C 7.203125 -17.90625 8.445312 -18.125 9.875 -18.125 C 11.226562 -18.125 12.425781 -17.90625 13.46875 -17.46875 C 14.519531 -17.039062 15.398438 -16.425781 16.109375 -15.625 C 16.828125 -14.820312 17.367188 -13.851562 17.734375 -12.71875 C 18.109375 -11.59375 18.296875 -10.335938 18.296875 -8.953125 Z M 5.578125 -8.953125 C 5.578125 -7.753906 5.65625 -6.6875 5.8125 -5.75 C 5.96875 -4.8125 6.210938 -4.019531 6.546875 -3.375 C 6.890625 -2.726562 7.332031 -2.234375 7.875 -1.890625 C 8.414062 -1.546875 9.070312 -1.375 9.84375 -1.375 C 10.625 -1.375 11.285156 -1.546875 11.828125 -1.890625 C 12.367188 -2.234375 12.804688 -2.726562 13.140625 -3.375 C 13.472656 -4.019531 13.710938 -4.8125 13.859375 -5.75 C 14.015625 -6.6875 14.09375 -7.753906 14.09375 -8.953125 C 14.09375 -10.148438 14.015625 -11.210938 13.859375 -12.140625 C 13.710938 -13.078125 13.472656 -13.867188 13.140625 -14.515625 C 12.804688 -15.160156 12.367188 -15.648438 11.828125 -15.984375 C 11.296875 -16.328125 10.644531 -16.5 9.875 -16.5 C 9.09375 -16.5 8.425781 -16.328125 7.875 -15.984375 C 7.332031 -15.648438 6.890625 -15.160156 6.546875 -14.515625 C 6.210938 -13.867188 5.96875 -13.078125 5.8125 -12.140625 C 5.65625 -11.210938 5.578125 -10.148438 5.578125 -8.953125 Z M 5.578125 -8.953125 "/></g></g></g></svg>